<?xml version="1.0" standalone="no"?>
<!DOCTYPE svg PUBLIC "-//W3C//DTD SVG 20010904//EN"
 "http://www.w3.org/TR/2001/REC-SVG-20010904/DTD/svg10.dtd">
<svg version="1.0" xmlns="http://www.w3.org/2000/svg"
 width="683.000000pt" height="683.000000pt" viewBox="0 0 683.000000 683.000000"
 preserveAspectRatio="xMidYMid meet">
<metadata>
Created by potrace 1.11, written by Peter Selinger 2001-2013
</metadata>
<g transform="translate(0.000000,683.000000) scale(0.100000,-0.100000)"
fill="#000000" stroke="none">
<path d="M3219 6466 c-2 -2 -53 -7 -114 -10 -60 -4 -128 -9 -150 -11 -22 -2
-65 -6 -95 -9 -78 -7 -149 -15 -190 -21 -139 -21 -228 -35 -310 -52 -41 -8
-86 -16 -100 -18 -14 -2 -90 -20 -170 -40 -594 -150 -996 -375 -1124 -632 -15
-29 -36 -94 -47 -145 -34 -158 -45 -207 -94 -413 -56 -241 -143 -617 -149
-648 -5 -21 -54 -237 -62 -267 -10 -41 -55 -237 -58 -255 -2 -11 -7 -27 -10
-35 -3 -8 -7 -26 -10 -40 -2 -14 -13 -64 -25 -112 -11 -48 -22 -98 -25 -110
-2 -13 -11 -52 -20 -88 -8 -36 -25 -105 -36 -155 -11 -49 -25 -108 -31 -130
-5 -22 -12 -49 -14 -60 -2 -11 -33 -148 -70 -305 -82 -359 -106 -460 -110
-483 -2 -10 -7 -28 -11 -40 -4 -12 -9 -31 -10 -42 -2 -11 -15 -72 -29 -135
-30 -132 -27 -118 -55 -235 -12 -49 -23 -97 -25 -105 -2 -8 -17 -76 -35 -150
-17 -74 -34 -153 -36 -176 -20 -154 141 -278 284 -218 43 18 88 58 108 96 13
25 45 152 90 358 17 78 16 73 53 230 16 69 52 224 80 345 28 121 61 267 75
325 70 302 102 440 136 590 21 91 86 372 145 625 59 253 109 469 111 480 2 11
15 70 30 130 14 61 28 120 30 131 2 12 17 77 33 145 17 68 32 135 35 149 12
62 19 90 22 90 2 0 29 -16 60 -36 158 -101 546 -255 752 -299 9 -2 64 -15 122
-29 90 -21 170 -37 305 -61 115 -20 359 -51 470 -60 207 -16 316 -20 620 -20
294 0 451 5 595 20 19 1 67 6 105 10 39 3 84 8 100 10 17 2 55 7 85 10 117 13
363 59 540 100 319 73 655 204 851 330 l66 43 91 -282 c50 -154 112 -348 137
-431 50 -162 161 -585 171 -650 3 -22 8 -43 10 -46 2 -3 6 -21 9 -40 3 -19 12
-61 20 -94 16 -72 44 -233 51 -295 3 -25 7 -52 9 -60 22 -84 22 -529 0 -641
-3 -13 -7 -37 -9 -54 -8 -54 -17 -99 -27 -140 -6 -22 -13 -47 -14 -57 -9 -43
-72 -212 -108 -288 -169 -353 -501 -673 -914 -879 -293 -147 -567 -228 -928
-275 -40 -5 -111 -12 -235 -22 -82 -7 -493 -7 -580 0 -36 3 -101 8 -145 11
-44 3 -91 8 -105 10 -14 2 -50 7 -80 10 -83 10 -276 60 -366 95 -324 128 -621
353 -708 535 -101 213 -138 610 -87 925 14 83 18 101 51 230 23 92 95 293 116
325 7 11 47 107 89 214 72 182 158 365 222 472 36 60 111 166 121 173 4 2 36
-73 71 -167 75 -203 115 -281 172 -332 90 -81 167 -96 459 -89 118 2 226 6
240 8 14 2 57 7 95 10 39 4 81 9 95 11 14 2 45 7 70 10 96 14 144 26 176 46
45 27 82 106 89 189 6 77 8 90 28 157 17 57 69 158 101 197 l21 25 135 -190
c74 -105 140 -196 145 -202 6 -7 21 -28 34 -47 75 -109 157 -152 249 -128 111
28 183 165 140 265 -11 23 -110 171 -141 208 -19 23 -214 297 -267 375 -100
147 -164 193 -271 193 -97 1 -162 -34 -269 -142 -130 -131 -223 -295 -271
-478 l-22 -81 -81 -9 c-44 -5 -173 -9 -286 -8 l-205 0 -78 205 c-42 113 -87
232 -98 265 -58 164 -98 222 -177 257 -90 40 -158 10 -315 -141 -204 -197
-366 -455 -531 -846 -30 -71 -71 -168 -91 -215 -122 -280 -208 -587 -232 -829
-15 -143 -7 -510 12 -581 2 -8 7 -35 10 -60 14 -102 60 -255 110 -366 89 -196
273 -389 530 -556 271 -176 617 -300 930 -334 28 -3 61 -7 75 -9 60 -11 282
-20 490 -20 257 0 422 9 580 29 25 4 68 9 95 12 28 3 82 12 120 20 39 8 86 17
105 20 124 20 455 123 615 191 303 130 618 339 835 555 365 365 565 778 627
1301 15 125 8 569 -11 673 -4 25 -14 96 -21 159 -4 28 -8 57 -10 65 -2 8 -7
30 -10 47 -5 31 -43 222 -50 253 -69 303 -133 526 -355 1230 -110 347 -152
499 -160 576 -19 183 -125 327 -343 468 -281 183 -757 342 -1242 416 -38 6
-81 13 -95 15 -34 5 -94 13 -160 20 -30 4 -66 8 -80 10 -14 2 -65 7 -115 10
-49 4 -110 9 -135 12 -53 5 -806 14 -811 9z"/>
<path d="M3946 2981 c-46 -27 -79 -131 -65 -200 16 -78 101 -110 166 -61 18
12 35 30 39 39 11 24 13 151 4 177 -19 50 -96 74 -144 45z"/>
<path d="M3095 2958 c-29 -17 -42 -37 -60 -90 -48 -140 -6 -236 95 -223 42 6
61 23 93 90 38 76 32 169 -12 209 -25 22 -90 30 -116 14z"/>
<path d="M3661 2686 c-31 -17 -50 -53 -51 -93 0 -42 -36 -66 -57 -37 -7 10
-13 23 -13 29 0 5 -11 23 -25 38 -43 45 -125 34 -158 -23 -22 -36 -21 -65 2
-115 86 -190 345 -191 434 -2 21 44 27 110 14 150 -19 58 -90 84 -146 53z"/>
</g>
</svg>
