<svg xmlns="http://www.w3.org/2000/svg" viewBox="0 0 112.8 141.96"><defs><style>.cls-1{fill:#db2a37;}.cls-2{fill:#47413a;}.cls-3{fill:#5e564d;}.cls-14,.cls-4{fill:none;}.cls-4{stroke:#fff;stroke-width:3.38px;}.cls-16,.cls-4{stroke-linecap:round;}.cls-10,.cls-14,.cls-15,.cls-16,.cls-4,.cls-9{stroke-miterlimit:10;}.cls-5{fill:#fff;}.cls-6{fill:#fff1ca;}.cls-7{fill:#612c16;}.cls-8{fill:#1b3b95;}.cls-9{fill:#141414;}.cls-10,.cls-9{stroke:#000;stroke-width:0.07px;}.cls-11{fill:#d2b490;}.cls-12{fill:#998675;}.cls-13{fill:#d2c1ac;}.cls-14,.cls-15,.cls-16{stroke:#ccc;stroke-width:1.41px;}.cls-15,.cls-16{fill:#ccc;}</style></defs><g id="레이어_2" data-name="레이어 2"><g id="레이어_1-2" data-name="레이어 1"><rect class="cls-1" x="0.16" width="112.62" height="111" rx="8.23"/><polygon class="cls-2" points="41.98 70.29 101.04 70.2 92.77 57.47 34.4 57.47 41.98 70.29"/><polygon class="cls-3" points="82.44 68.74 20.08 68.65 34.44 57.4 92.83 57.4 82.44 68.74"/><path class="cls-4" d="M69.77,73.24c7.58-3.63,9.57-7.22,10-9.86.46-3.14-1.26-5.5,0-8.84A10.5,10.5,0,0,1,85,49.24"/><path class="cls-5" d="M50.33,53.13A35.56,35.56,0,0,0,38.07,63.71a19.21,19.21,0,0,0-2.51,4.51,1,1,0,0,0,0,.86,1.14,1.14,0,0,0,.85.36l9.86,1.12a1,1,0,0,0,.77-.12.94.94,0,0,0,.25-.54l3.45-15.16c.1-.46.16-1-.25-1.28"/><path class="cls-5" d="M50,52.52A37,37,0,0,0,37.79,62.93c-1.16,1.56-5,6.16-1.6,7.19,2.65.8,6.06.74,8.82,1,1.6.15,2.16.3,2.93-1s.82-3.6,1.15-5.06l1.29-5.68c.43-1.86,1.7-4.45.69-6.25-.44-.79-1.66-.08-1.22.71.74,1.31-.8,5-1.11,6.43l-1.3,5.68c-.59,2.62-1.26,3.93-4.28,3.58a49.09,49.09,0,0,1-5.55-.63c-1.67-.38-1.33-.78-.59-2.17.32-.61.69-1.2,1.07-1.78a32.07,32.07,0,0,1,3.61-4.45,37,37,0,0,1,9-6.74c.8-.43.09-1.65-.71-1.21Z"/><rect class="cls-5" x="54.74" y="42.33" width="8.38" height="29.3"/><path class="cls-5" d="M78.21,13.67l-7.15,7.24a1.94,1.94,0,0,1-1.91.76,158.71,158.71,0,0,0-17.72.08,2.58,2.58,0,0,1-.62,0,2.19,2.19,0,0,1-1.1-.9c-1.72-2.2-3.2-4.93-4.92-7.13h-.27C40.06,18.39,37.67,25.53,37.16,32a22.35,22.35,0,0,0,.46,7.52A16.78,16.78,0,0,0,46.54,50a23.9,23.9,0,0,0,13.69,1.9A26.18,26.18,0,0,0,72.46,47a20.28,20.28,0,0,0,7.46-10.86,26,26,0,0,0,.71-5,49.8,49.8,0,0,0-2.1-17.47"/><path class="cls-5" d="M78,13.42c-1.58,1.6-3.1,3.32-4.77,4.83-2.17,2-3.18,2.66-6,3-2.53.28-5.32-.14-7.88-.11-1.89,0-4,.44-5.9.17q-2.84.84-4.4-2l-1-1.45c-.42-.55-2.3-4.34-3-4.37a6.59,6.59,0,0,0-.77,0c-1.69.14-4.07,5.9-4.61,7.11a34.64,34.64,0,0,0-2.47,8.34c-.92,5.51-.79,11.3,2.64,16,7.44,10.1,23.49,9.44,32.81,2.46,10.45-7.83,9.66-22.41,6.23-33.7-.13-.44-.81-.25-.68.18C81.9,26,82.12,41.5,69.49,48.51c-13.83,7.66-33.34,1.33-32-16.48.22-2.9,3-18.5,8-16.78,1.56.53,2.66,4.72,4,5.82a3.67,3.67,0,0,0,1.66,1c2.54.7,6.49-.26,9.17-.27s6.68.84,9.37.16c3.29-.84,6.46-5.7,8.8-8.06a.35.35,0,0,0-.5-.5Z"/><path class="cls-1" d="M56.66,30c-.33,0-.55,0-.69.35a2.85,2.85,0,0,0-.24.91c0,.48.1,1.23.77,1.07,1-.24,1.46-2.34.13-2.31a.35.35,0,0,0-.34.25,2.13,2.13,0,0,0-.06,1.09.36.36,0,0,0,.44.25.88.88,0,0,0,0-1.64c-.43-.14-.62.54-.19.68.08,0,.1.25,0,.28l.43.25a1.47,1.47,0,0,1,.06-.72l-.34.26c.4,0-.16.77-.22.86s0,0,0,.06v-.11c0-.1,0-.23,0-.34a2.29,2.29,0,0,1,.19-.63l-.3.17.32,0c.45,0,.45-.74,0-.71Z"/><path class="cls-1" d="M60.27,30.07A1.37,1.37,0,0,0,60.66,32a.35.35,0,0,0,.42,0,1.66,1.66,0,0,0,.63-1.08.93.93,0,0,0-.48-.86c-.82-.44-1.2.66-1,1.28a.8.8,0,0,0,.68.65.72.72,0,0,0,.66-.66c.12-.63,0-1.46-.78-1.56-.45-.05-.44.65,0,.71.11,0,.11.43.11.49a2,2,0,0,0,0,.32s.1,0,.11,0l-.07-.17c0-.09,0-.54.1-.37s-.22.6-.37.76l.42-.05a.68.68,0,0,1-.14-1c.27-.37-.34-.72-.6-.36Z"/><path class="cls-1" d="M69,32.86a11.62,11.62,0,0,1,2.87-1.05c.44-.1.25-.78-.19-.68a12.77,12.77,0,0,0-3,1.12c-.4.21,0,.82.36.61Z"/><path class="cls-1" d="M69.21,34.67l3.26.2c.45,0,.45-.68,0-.71L69.21,34c-.45,0-.45.68,0,.71Z"/><path class="cls-1" d="M48.17,32.82c-.9-.36-1.81-.7-2.73-1-.44-.14-.62.54-.19.68.92.29,1.84.62,2.73,1,.42.18.61-.51.19-.68Z"/><path class="cls-1" d="M48.45,34.61a27.62,27.62,0,0,0-3.14.33c-.44.07-.25.75.19.68a24.37,24.37,0,0,1,3-.3c.45,0,.45-.73,0-.71Z"/><path class="cls-6" d="M69.74,21c.11.44-.35.8-.76,1a17.4,17.4,0,0,1-6.5,1.71,34.75,34.75,0,0,1-6.76-.26,8.11,8.11,0,0,1-4.62-1.64,1.16,1.16,0,0,1-.46-.93h0c1.08-3.44,2.28-6.81,3.39-10.25.39-1.23,1.82-1.78,3.1-2a16.35,16.35,0,0,1,6.5.08C65,9,66.51,9.67,66.9,11l1.63,5.67c.39,1.37.79,2.74,1.13,4.12,0,.11.09.19,0,.21"/><path class="cls-7" d="M66.69,10.58c0,1.23-2.94,2.05-6.35,2.05s-6.18-1-6.18-2.24,2.77-2.23,6.18-2.23S66.69,9.35,66.69,10.58Z"/><path class="cls-5" d="M54.32,17.85l-.17,0a.51.51,0,0,1-.36-.63l.85-3.29a.5.5,0,0,1,.61-.36l.18.05a.51.51,0,0,1,.36.62l-.85,3.29A.5.5,0,0,1,54.32,17.85Z"/><circle class="cls-5" cx="53.9" cy="18.88" r="0.56"/><path class="cls-8" d="M63.1,52.63a4,4,0,0,1,3.32-.46,5.88,5.88,0,0,1,2.83,1.93,13.58,13.58,0,0,1,2.47,6.17,60.13,60.13,0,0,1,1.15,10.87l-11.38.54c-.31,0-.75-.18-.6-.44l0,0q-.08-3.78,0-7.54c.09-3.87.34-7.86,2-11.32"/><path class="cls-8" d="M63.28,52.94C67,51.23,69.87,55,70.86,58.17A35.12,35.12,0,0,1,72,64.37c.21,1.56,1.06,4.74,0,5.95s-4.63.73-6.21.81c-1,0-3.89.59-4.56-.07-.47-.46,0-3.67,0-4.39,0-4.82,0-9.67,2-14.15.18-.41-.43-.77-.61-.36a25,25,0,0,0-1.94,8.26c-.13,1.83-.16,3.67-.17,5.5,0,1.31-.55,4.22,0,5.37.33.64.31.35.88.73.89.59,3.92-.17,5.08-.22l6.4-.3a.37.37,0,0,0,.36-.36C73.09,66,72.43,48,62.92,52.33c-.41.19-.05.79.36.61Z"/><path class="cls-8" d="M55.31,52.3a5.59,5.59,0,0,0-3.94-.47,6.29,6.29,0,0,0-2.74,2.24c-1.42,1.71-1.69,4-2.13,6.17a61.16,61.16,0,0,0-1.16,10.88l11.39.54c.31,0,.75-.18.6-.45l0,0q.08-3.77,0-7.54c-.09-3.86-.34-7.85-2-11.31"/><path class="cls-8" d="M55.48,52C45.6,47.53,45.13,65.7,45,71.12a.36.36,0,0,0,.35.35l5.7.27c1.31.06,4.53.86,5.74.26.65-.31.6-.1.93-.73.51-1,0-3.49,0-4.62,0-1.87,0-3.74-.14-5.61a25.7,25.7,0,0,0-2-8.9c-.18-.42-.79-.06-.61.35,1.87,4.26,2,8.83,2,13.41,0,.84.53,4.54,0,5.1s-3.75.14-4.59.1c-1.35-.06-4.55.4-5.69-.26-1.68-1-.91-3.57-.74-5.19.44-4.16,1.42-16.52,9.1-13.05.41.19.77-.42.35-.6Z"/><path class="cls-5" d="M68.76,59.22c-2.42-2.79-6.15-.23-5.77,3s5,4.84,6.5,1.41c.36-.83-.85-1.55-1.21-.71-.89,2-3.5,1.32-3.88-.7s1.79-3.84,3.36-2c.6.68,1.59-.32,1-1Z"/><path class="cls-1" d="M56.4,36.63a6.31,6.31,0,0,1,1.46-2.15c.44-.42,1-1,1.65-.68.39.19.79.87,1,1.19s.66.67.25,1c-.18.17-1.22.06-1.49.07l-3.21.15c-.45,0-.46.72,0,.7l3-.13a8.21,8.21,0,0,0,2.43-.15c1-.42-.13-1.73-.47-2.19-.63-.87-1.38-2-2.53-1.37a6.44,6.44,0,0,0-2.71,3.16c-.18.41.43.77.61.36Z"/><rect class="cls-9" x="38.37" y="58.35" width="15.57" height="20.64" rx="7.78"/><rect class="cls-10" x="50.55" y="58.28" width="15.57" height="20.64" rx="7.78"/><path class="cls-5" d="M70.36,56.36a36.59,36.59,0,0,1,3.06,16.06,19,19,0,0,1-.81,5.11,1,1,0,0,1-.5.69,1.08,1.08,0,0,1-.89-.26l-8.38-5.4a1,1,0,0,1-.53-.58,1,1,0,0,1,.13-.57l6.63-14c.2-.42.51-.9,1-.84"/><path class="cls-5" d="M69.68,56.55A37.79,37.79,0,0,1,72.61,68a33.36,33.36,0,0,1,.1,4.47c-.13,2.73,0,4.72-3.23,3.58-1.14-.4-4.2-2.19-4.89-3.15-1.47-2-.22-3.87.67-5.77s3.1-9.11,5-9.87c.83-.33.47-1.69-.38-1.36-2.13.86-2.7,3.92-3.61,5.84L64,66.37c-.61,1.31-2.11,3.42-2.28,4.85s0,.85.72,2c1,1.4,4.14,2.67,5.59,3.6a14.84,14.84,0,0,0,3.85,2.13.72.72,0,0,0,.79-.33c1.85-2.52,1.55-6.95,1.36-9.87a39.31,39.31,0,0,0-3-12.53c-.34-.82-1.71-.46-1.36.38Z"/><rect class="cls-11" x="19.88" y="68.6" width="62.62" height="32.96"/><polygon class="cls-12" points="92.85 89.21 82.49 101.61 82.49 68.61 92.85 57.34 92.85 89.21"/><polygon class="cls-13" points="74.35 81.49 11.06 81.4 19.92 68.67 82.47 68.67 74.35 81.49"/><path class="cls-5" d="M29.54,39c.11-.78,1-2.5,2-1.79s.39,2.06-.12,2.75c-.89,1.18-.7,2.14.17,3.34.53.73,1.75,0,1.22-.71-.35-.48-.75-.94-.4-1.64.09-.18.4-.36.53-.54a2.81,2.81,0,0,0,.5-1.34,3.87,3.87,0,0,0-.86-2.93c-1.71-1.71-4.17.75-4.41,2.49-.12.89,1.24,1.27,1.36.37Z"/><path class="cls-5" d="M33.41,45.67a.71.71,0,0,0,0-1.41.71.71,0,0,0,0,1.41Z"/><path class="cls-5" d="M86.21,31.86c.25-.63,1-.21,1.3.13a1.61,1.61,0,0,1,0,1.64c-.35.57-.92.4-1.44.68-.93.52-1.06,2-1.32,2.94a.71.71,0,0,0,1.36.37c.2-.69.28-1.79.93-2.13s.92-.16,1.35-.65A3.35,3.35,0,0,0,89,31.73a2.16,2.16,0,0,0-4.11-.25c-.34.84,1,1.21,1.36.38Z"/><path class="cls-5" d="M84.79,40.51l.15-.09a.49.49,0,0,0,.2-.18.55.55,0,0,0,.12-.24.53.53,0,0,0,0-.28.62.62,0,0,0-.09-.26l-.11-.14a.65.65,0,0,0-.31-.18l-.19,0a.64.64,0,0,0-.35.1l-.15.08a.47.47,0,0,0-.19.18.47.47,0,0,0-.13.24.53.53,0,0,0,0,.28.5.5,0,0,0,.08.26l.11.15a.87.87,0,0,0,.31.18l.19,0a.68.68,0,0,0,.35-.09Z"/><path class="cls-14" d="M0,101.56c3.17-.07,9.39,1.54,14.86,1.06a33.43,33.43,0,0,0,6.2-1.13"/><path class="cls-15" d="M18.93,100.3h3.13a0,0,0,0,1,0,0v4.3a0,0,0,0,1,0,0H18.93a2.15,2.15,0,0,1-2.15-2.15v0A2.15,2.15,0,0,1,18.93,100.3Z"/><path class="cls-14" d="M112.78,100.72c-1.62,0-10-2-16.91,1.65-6.54,3.49-15,1.49-17.67,1.26A34.83,34.83,0,0,1,72,102.5"/><path class="cls-15" d="M73.51,100.23h3.13a0,0,0,0,1,0,0v4.3a0,0,0,0,1,0,0H73.51a2.15,2.15,0,0,1-2.15-2.15v0A2.15,2.15,0,0,1,73.51,100.23Z" transform="translate(110.44 223.33) rotate(-160.9)"/><line class="cls-16" x1="70.21" y1="99.86" x2="72.36" y2="100.71"/><line class="cls-16" x1="69.46" y1="101.92" x2="71.52" y2="102.71"/><path class="cls-1" d="M44.57,119.83c1,0,1.38.76,1.38,1.65s-.43,1.66-1.38,1.66H36.78l-.24,5.55a7.47,7.47,0,0,1,4.11-1.14c4.26,0,6.59,3.19,6.59,6.74v.31c0,3.53-2.3,7.36-7.91,7.36a11.67,11.67,0,0,1-6.62-1.63,1.78,1.78,0,0,1-.52-2.54,1.58,1.58,0,0,1,2.36-.58,8.59,8.59,0,0,0,4.75,1.19c2.7,0,4-1.56,4-3.83v-.18c0-2.36-1.44-3.68-3.89-3.68A5.72,5.72,0,0,0,35.77,132a2.21,2.21,0,0,1-1.62.68c-.95,0-1.56-.49-1.53-1.32l.49-8.83c.12-2.14.61-2.66,2.6-2.66Z"/><path class="cls-1" d="M66.43,130.06v1.32c0,6.75-2.49,10.58-8.16,10.58s-8.15-3.83-8.15-10.58v-1.32c0-6.74,2.48-10.57,8.15-10.57S66.43,123.32,66.43,130.06Zm-12.36.28v.77c0,5,1,7.14,4.2,7.14s4.2-2.09,4.2-7.14v-.77c0-5.06-1-7.14-4.2-7.14S54.07,125.28,54.07,130.34Z"/><path class="cls-1" d="M85.43,130.06v1.32c0,6.75-2.48,10.58-8.15,10.58s-8.16-3.83-8.16-10.58v-1.32c0-6.74,2.49-10.57,8.16-10.57S85.43,123.32,85.43,130.06Zm-12.35.28v.77c0,5,1,7.14,4.2,7.14s4.2-2.09,4.2-7.14v-.77c0-5.06-1-7.14-4.2-7.14S73.08,125.28,73.08,130.34Z"/></g></g></svg>