<svg xmlns="http://www.w3.org/2000/svg" viewBox="0 0 112.8 141.96" xmlns:v="https://vecta.io/nano"><rect x=".16" width="112.62" height="111" rx="8.23" fill="#db2a37"/><path d="M41.98 70.3l59.06-.1-8.27-12.73H34.4l7.58 12.82z" fill="#47413a"/><path d="M82.44 68.74l-62.36-.1L34.44 57.4h58.4l-10.4 11.34z" fill="#5e564d"/><path d="M69.77,73.24c7.58-3.63,9.57-7.22,10-9.86.46-3.14-1.26-5.5,0-8.84A10.5,10.5,0,0,1,85,49.24" fill="none" stroke="#fff" stroke-width="3.38" stroke-linecap="round" stroke-miterlimit="10"/><g fill="#fff"><path d="M50.33,53.13A35.56,35.56,0,0,0,38.07,63.71a19.21,19.21,0,0,0-2.51,4.51,1,1,0,0,0,0,.86,1.14,1.14,0,0,0,.85.36l9.86,1.12a1,1,0,0,0,.77-.12.94.94,0,0,0,.25-.54l3.45-15.16c.1-.46.16-1-.25-1.28"/><path d="M50 52.52a37 37 0 0 0-12.21 10.41c-1.16 1.56-5 6.16-1.6 7.2 2.65.8 6.06.74 8.82 1 1.6.15 2.16.3 2.93-1s.82-3.6 1.15-5.06l1.3-5.68c.43-1.86 1.7-4.45.7-6.25-.44-.8-1.66-.08-1.22.7.74 1.3-.8 5-1.1 6.43l-1.3 5.68c-.6 2.62-1.26 3.93-4.28 3.58a49.09 49.09 0 0 1-5.55-.63c-1.67-.38-1.33-.78-.6-2.17a21.51 21.51 0 0 1 1.07-1.78 32.07 32.07 0 0 1 3.61-4.45 37 37 0 0 1 9-6.74c.8-.43.1-1.65-.7-1.2zm4.74-10.2h8.38v29.3h-8.38z"/><path d="M78.2 13.67l-7.15 7.24a1.94 1.94 0 0 1-1.91.76 158.71 158.71 0 0 0-17.72.08 2.58 2.58 0 0 1-.62 0 2.19 2.19 0 0 1-1.1-.9c-1.72-2.2-3.2-4.93-4.92-7.13h-.27c-4.46 4.67-6.85 11.8-7.36 18.28a22.35 22.35 0 0 0 .46 7.52A16.78 16.78 0 0 0 46.54 50a23.9 23.9 0 0 0 13.69 1.9A26.18 26.18 0 0 0 72.46 47a20.28 20.28 0 0 0 7.46-10.86 26 26 0 0 0 .71-5 49.8 49.8 0 0 0-2.1-17.47"/><path d="M78 13.42l-4.77 4.83c-2.17 2-3.18 2.66-6 3-2.53.28-5.32-.14-7.88-.1-1.9 0-4 .44-5.9.17q-2.84.84-4.4-2l-1-1.45c-.42-.55-2.3-4.34-3-4.37a6.59 6.59 0 0 0-.77 0c-1.7.14-4.07 5.9-4.6 7.1a34.64 34.64 0 0 0-2.47 8.34c-.92 5.5-.8 11.3 2.64 16 7.44 10.1 23.5 9.44 32.8 2.46C83.1 39.57 82.3 25 78.88 13.7c-.13-.44-.8-.25-.68.18C81.9 26 82.12 41.5 69.5 48.5c-13.83 7.66-33.34 1.33-32-16.48.22-2.9 3-18.5 8-16.78 1.56.53 2.66 4.72 4 5.82a3.67 3.67 0 0 0 1.66 1c2.54.7 6.5-.26 9.17-.27s6.68.84 9.37.16c3.3-.84 6.46-5.7 8.8-8.06a.35.35 0 0 0-.5-.5z"/></g><path d="M56.66 30c-.33 0-.55 0-.7.35a2.85 2.85 0 0 0-.24.91c0 .48.1 1.23.77 1.07 1-.24 1.46-2.34.13-2.3a.35.35 0 0 0-.34.25 2.13 2.13 0 0 0-.06 1.09.36.36 0 0 0 .44.25.88.88 0 0 0 0-1.64c-.43-.14-.62.54-.2.68.08 0 .1.25 0 .28l.43.25a1.47 1.47 0 0 1 .06-.72l-.34.26c.4 0-.16.77-.22.86s0 0 0 .06v-.45a2.29 2.29 0 0 1 .19-.63l-.3.17h.32c.45 0 .45-.74 0-.7zm3.6.07a1.37 1.37 0 0 0 .39 1.93.35.35 0 0 0 .42 0 1.66 1.66 0 0 0 .63-1.08.93.93 0 0 0-.48-.86c-.82-.44-1.2.66-1 1.28a.8.8 0 0 0 .68.65.72.72 0 0 0 .66-.66c.12-.63 0-1.46-.78-1.56-.45-.05-.44.65 0 .7.1 0 .1.43.1.5a2 2 0 0 0 0 .32h.1l-.07-.17c0-.1 0-.54.1-.37s-.22.6-.37.76l.42-.05a.68.68 0 0 1-.14-1c.27-.37-.34-.72-.6-.36zm8.73 2.8a11.62 11.62 0 0 1 2.87-1.05c.44-.1.25-.78-.2-.68a12.77 12.77 0 0 0-3 1.12c-.4.2 0 .82.36.6zm.2 1.8l3.26.2c.45 0 .45-.68 0-.7L69.2 34c-.45 0-.45.68 0 .7zm-21.03-1.85l-2.73-1c-.44-.14-.62.54-.2.68l2.73 1c.42.18.6-.5.2-.68zm.28 1.78a27.62 27.62 0 0 0-3.14.33c-.44.07-.25.75.2.68a24.37 24.37 0 0 1 3-.3c.45 0 .45-.73 0-.7z" fill="#db2a37"/><path d="M69.74 21c.1.44-.35.8-.76 1a17.4 17.4 0 0 1-6.5 1.71 34.75 34.75 0 0 1-6.76-.26 8.11 8.11 0 0 1-4.62-1.64 1.16 1.16 0 0 1-.46-.93h0c1.08-3.44 2.28-6.8 3.4-10.25.4-1.23 1.82-1.78 3.1-2a16.35 16.35 0 0 1 6.5.08C65 9 66.5 9.67 66.9 11l1.63 5.67 1.13 4.12c0 .1.1.2 0 .2" fill="#fff1ca"/><path d="M66.7 10.58c0 1.23-2.94 2.05-6.35 2.05s-6.18-1-6.18-2.24 2.77-2.23 6.18-2.23 6.35 1.2 6.35 2.42z" fill="#612c16"/><g fill="#fff"><path d="M54.32 17.85h-.17a.51.51 0 0 1-.36-.63l.85-3.3a.5.5 0 0 1 .61-.36l.18.05a.51.51 0 0 1 .36.62l-.85 3.3a.5.5 0 0 1-.62.32z"/><circle cx="53.9" cy="18.88" r=".56"/></g><g fill="#1b3b95"><path d="M63.1 52.63a4 4 0 0 1 3.32-.46 5.88 5.88 0 0 1 2.83 1.93 13.58 13.58 0 0 1 2.47 6.17 60.13 60.13 0 0 1 1.15 10.87l-11.38.54c-.3 0-.75-.18-.6-.44h0q-.08-3.78 0-7.54c.1-3.87.34-7.86 2-11.32"/><path d="M63.28 52.94c3.72-1.7 6.6 2.06 7.58 5.23a35.12 35.12 0 0 1 1.14 6.2c.2 1.56 1.06 4.74 0 5.95s-4.63.73-6.2.8c-1 0-3.9.6-4.56-.07-.47-.46 0-3.67 0-4.4 0-4.82 0-9.67 2-14.15.18-.4-.43-.77-.6-.36a25 25 0 0 0-1.94 8.26c-.13 1.83-.16 3.67-.17 5.5 0 1.3-.55 4.22 0 5.37.33.64.3.35.88.73.9.6 3.92-.17 5.08-.22l6.4-.3a.37.37 0 0 0 .36-.36c-.14-5.14-.8-23.14-10.3-18.8-.4.2-.05.8.36.6zm-7.98-.64a5.59 5.59 0 0 0-3.94-.47 6.29 6.29 0 0 0-2.74 2.24c-1.42 1.7-1.7 4-2.13 6.17a61.16 61.16 0 0 0-1.16 10.88l11.4.54c.3 0 .75-.18.6-.45h0q.08-3.77 0-7.54c-.1-3.86-.34-7.85-2-11.3"/><path d="M55.48 52C45.6 47.53 45.13 65.7 45 71.12a.36.36 0 0 0 .35.35l5.7.27c1.3.06 4.53.86 5.74.26.65-.3.6-.1.93-.73.5-1 0-3.5 0-4.62 0-1.87 0-3.74-.14-5.6a25.7 25.7 0 0 0-2-8.9c-.18-.42-.8-.06-.6.35 1.87 4.26 2 8.83 2 13.4 0 .84.53 4.54 0 5.1s-3.75.14-4.6.1c-1.35-.06-4.55.4-5.7-.26-1.68-1-.9-3.57-.74-5.2.44-4.16 1.42-16.52 9.1-13.05.4.2.77-.42.35-.6z"/></g><path d="M68.76 59.22c-2.42-2.8-6.15-.23-5.77 3s5 4.84 6.5 1.4c.36-.83-.85-1.55-1.2-.7-.9 2-3.5 1.32-3.88-.7s1.8-3.84 3.36-2c.6.68 1.6-.32 1-1z" fill="#fff"/><path d="M56.4 36.63a6.31 6.31 0 0 1 1.46-2.15c.44-.42 1-1 1.65-.68.4.2.8.87 1 1.2s.66.67.25 1c-.18.17-1.22.06-1.5.07l-3.2.15c-.45 0-.46.72 0 .7l3-.13a8.21 8.21 0 0 0 2.43-.15c1-.42-.13-1.73-.47-2.2-.63-.87-1.38-2-2.53-1.37a6.44 6.44 0 0 0-2.71 3.16c-.18.4.43.77.6.36z" fill="#db2a37"/><g stroke-miterlimit="10" stroke="#000" stroke-width=".07"><rect x="38.37" y="58.35" width="15.57" height="20.64" rx="7.78" fill="#141414"/><rect x="50.55" y="58.28" width="15.57" height="20.64" rx="7.78"/></g><g fill="#fff"><path d="M70.36 56.36a36.59 36.59 0 0 1 3.06 16.06 19 19 0 0 1-.81 5.11 1 1 0 0 1-.5.69 1.08 1.08 0 0 1-.89-.26l-8.38-5.4a1 1 0 0 1-.53-.58 1 1 0 0 1 .13-.57l6.63-14c.2-.42.5-.9 1-.84"/><path d="M69.68 56.55A37.79 37.79 0 0 1 72.61 68a33.36 33.36 0 0 1 .1 4.47c-.13 2.73 0 4.72-3.23 3.58-1.14-.4-4.2-2.2-4.9-3.15-1.47-2-.22-3.87.67-5.77s3.1-9.1 5-9.87c.83-.33.47-1.7-.38-1.36-2.13.86-2.7 3.92-3.6 5.84L64 66.37c-.6 1.3-2.1 3.42-2.28 4.85s0 .85.72 2c1 1.4 4.14 2.67 5.6 3.6a14.84 14.84 0 0 0 3.85 2.13.72.72 0 0 0 .79-.33c1.85-2.52 1.55-6.95 1.36-9.87a39.31 39.31 0 0 0-3-12.53c-.34-.82-1.7-.46-1.36.38z"/></g><path d="M19.88 68.6H82.5v32.96H19.88z" fill="#d2b490"/><path d="M92.85 89.2L82.5 101.6v-33l10.36-11.27V89.2z" fill="#998675"/><path d="M74.35 81.5l-63.3-.1 8.86-12.73h62.55L74.35 81.5z" fill="#d2c1ac"/><path d="M29.54 39c.1-.78 1-2.5 2-1.8s.4 2.06-.12 2.75c-.9 1.18-.7 2.14.17 3.34.53.73 1.75 0 1.22-.7-.35-.48-.75-.94-.4-1.64.1-.18.4-.36.53-.54a2.81 2.81 0 0 0 .5-1.34 3.87 3.87 0 0 0-.86-2.93c-1.7-1.7-4.17.75-4.4 2.5-.12.9 1.24 1.27 1.36.37zm3.86 6.67a.71.71 0 0 0 0-1.41.71.71 0 0 0 0 1.41zm52.8-13.8c.25-.63 1-.2 1.3.13a1.61 1.61 0 0 1 0 1.64c-.35.57-.92.4-1.44.68-.93.52-1.06 2-1.32 2.94a.71.71 0 0 0 1.36.37c.2-.7.28-1.8.93-2.13s.92-.16 1.35-.65a3.35 3.35 0 0 0 .61-3.11 2.16 2.16 0 0 0-4.11-.25c-.34.84 1 1.2 1.36.38zm-1.4 8.64l.15-.1a.49.49 0 0 0 .2-.18.55.55 0 0 0 .12-.24.53.53 0 0 0 0-.28.62.62 0 0 0-.09-.26l-.1-.14a.65.65 0 0 0-.31-.18h-.2a.64.64 0 0 0-.35.1l-.15.08a.47.47 0 0 0-.19.18.47.47 0 0 0-.13.24.53.53 0 0 0 0 .28.5.5 0 0 0 .08.26l.1.15a.87.87 0 0 0 .31.18h.2a.68.68 0 0 0 .35-.09z" fill="#fff"/><g stroke-miterlimit="10" stroke="#ccc" stroke-width="1.41"><path d="M0 101.56c3.17-.07 9.4 1.54 14.86 1.06a33.43 33.43 0 0 0 6.2-1.13" fill="none"/><path d="M18.93 100.3h3.13a0 0 0 0 1 0 0v4.3a0 0 0 0 1 0 0h-3.13a2.15 2.15 0 0 1-2.15-2.15h0a2.15 2.15 0 0 1 2.15-2.15z" fill="#ccc"/><path d="M112.78 100.72c-1.62 0-10-2-16.9 1.65-6.54 3.5-15 1.5-17.67 1.26a34.83 34.83 0 0 1-6.2-1.13" fill="none"/><g fill="#ccc"><path d="M73.774 104.564l-2.958-1.024 1.407-4.063 2.958 1.024a2.15 2.15 0 0 1 1.328 2.735h0a2.15 2.15 0 0 1-2.735 1.328z"/><path d="M70.2 99.86l2.15.85m-2.9 1.2l2.06.8" stroke-linecap="round"/></g></g><path d="M44.57 119.83c1 0 1.38.76 1.38 1.65s-.43 1.66-1.38 1.66h-7.8l-.24 5.55a7.47 7.47 0 0 1 4.11-1.14c4.26 0 6.6 3.2 6.6 6.74v.3c0 3.53-2.3 7.36-7.9 7.36a11.67 11.67 0 0 1-6.62-1.63 1.78 1.78 0 0 1-.52-2.54 1.58 1.58 0 0 1 2.36-.58 8.59 8.59 0 0 0 4.75 1.19c2.7 0 4-1.56 4-3.83v-.18c0-2.36-1.44-3.68-3.9-3.68a5.72 5.72 0 0 0-3.64 1.29 2.21 2.21 0 0 1-1.62.68c-.95 0-1.56-.5-1.53-1.32l.5-8.83c.12-2.14.6-2.66 2.6-2.66zm21.86 10.23v1.32c0 6.75-2.5 10.58-8.16 10.58s-8.15-3.83-8.15-10.58v-1.32c0-6.74 2.48-10.57 8.15-10.57s8.16 3.83 8.16 10.57zm-12.36.28v.77c0 5 1 7.14 4.2 7.14s4.2-2.1 4.2-7.14v-.77c0-5.06-1-7.14-4.2-7.14s-4.2 2.08-4.2 7.14zm31.36-.28v1.32c0 6.75-2.48 10.58-8.15 10.58s-8.16-3.83-8.16-10.58v-1.32c0-6.74 2.5-10.57 8.16-10.57s8.15 3.83 8.15 10.57zm-12.35.28v.77c0 5 1 7.14 4.2 7.14s4.2-2.1 4.2-7.14v-.77c0-5.06-1-7.14-4.2-7.14s-4.2 2.08-4.2 7.14z" fill="#db2a37"/></svg>