<svg xmlns="http://www.w3.org/2000/svg" viewBox="0 0 173.06 167.14" xmlns:v="https://vecta.io/nano"><g fill="#fff"><path d="M45 32.68c-6.93 16-11.73 35.22-.53 51.22a39.09 39.09 0 0 0 17.11 12.28c3.74 1.06 6.94 2.66 10.67 3.2 11.66 1.66 25.62 2.13 35.75-1.6 11.43-4.2 18-12.4 21.34-26.68 3.2-13.87-3.73-32.55-9.6-42.68C116 22 108.7 12.65 105.33 6.85a2 2 0 0 0-1.13-1 2.21 2.21 0 0 0-1.74.65c-2.33 1.9-3.66 13.1-8.56 17.4-4.6 4.1-11.23.98-20.9 1.28a4.15 4.15 0 0 1-2.63-.67 4.3 4.3 0 0 1-1.52-2.45c-2-7.52-4.32-16-6.3-16.7s-6.52 4.74-18.28 29.4"/><path d="M40.4 30.06c-5.45 12.78-9.6 26.56-7.1 40.55S45.74 95.7 59 100.82c22.48 8.74 57.83 9.3 70.78-15.15 13.44-25.4.3-52.3-14.56-73.57-2.8-4-5.87-12-11.8-11.46-5.3.5-7 5.32-8.5 9.67s-2.53 10.25-7.85 10.4c-3 .07-6.07-.52-9.08-.72-1.67-.1-3.48.1-5.12-.12 1.93.28.8 1 .66-.9a17.9 17.9 0 0 0-.89-3.26c-1.36-4.82-3-14-8.8-15.5-2.77-.72-5.36.6-7.3 2.5-2.63 2.53-4.58 5.94-6.4 9.06-3.87 6.6-7.22 13.52-10.52 20.42-3 6.17 6.33 11.44 9.3 5.24 4-8.33 8.4-18.6 13.73-25.5.46-.6 1.47-1.33 1.78-2-.42.9-.7 0-.15.2l-.87.4a2.74 2.74 0 0 1-2.58-.39q-2.4-1.45-1.1.3c.2.53.4 1.06.6 1.6.53 1.4.95 2.86 1.38 4.3.82 2.78 1.3 5.9 2.5 8.54 2.48 5.52 7.13 5.5 12.4 5.7s10.78 1.7 16 .1c4.68-1.44 7.74-5.43 9.68-9.72.94-2.1 1.7-4.26 2.43-6.42.35-1 .77-2 1.06-3.1.47-1.7 1.2-.64-.06-.43l-4.12-.47c-.64-.4-.7-1.55-.53-.42a6.14 6.14 0 0 0 1 1.55c.88 1.38 1.8 2.73 2.73 4.08l6.22 8.9A81.76 81.76 0 0 1 119.89 41c5 12.84 7.26 26.76.55 39.45C114.32 92 102 95.1 89.72 95.28c-14 .2-30.2-2.2-39.92-13.4-11.3-13-6.14-32.46-.1-46.6 2.67-6.25-6.6-11.55-9.3-5.24z"/></g><path d="M69.85 38.16a9.48 9.48 0 0 0-1 4.64 2.52 2.52 0 0 0 4.68 1.2 13.75 13.75 0 0 0 1.16-2.68 2.94 2.94 0 0 0-2-3.57 2.75 2.75 0 0 0-3.28 2.11 2.69 2.69 0 0 0 .7 2.49 2.72 2.72 0 0 0 2.6.64 2.54 2.54 0 0 0 1.71-3.13 2.6 2.6 0 0 0-3.13-1.72h-.08l2.47.62.66 1.1v-.08 1.32l-1 1.27-1.9.3h.08l-1.2-.66-.24-.3-.36-1.24c0 .4.1-.26.1-.37s.06-.18 0 0l-.65 1.43 4.72 1.18V42c0-.23 0-.3 0 0l.06-.34c0-.22.14-.44.18-.67s0-.14 0 .1l.2-.4a2.521 2.521 0 1 0-4.39-2.48zm22.75-.02l-.46 1.13a3 3 0 0 0-.27 1.63 2.42 2.42 0 0 0 .71 1.42 2.56 2.56 0 0 0 3.06.36 3.64 3.64 0 0 0 1.55-4A2.54 2.54 0 0 0 95 36.85a2.56 2.56 0 0 0-2.47 1.25 5 5 0 0 0-.57 4 2.52 2.52 0 0 0 4.94-.77v-.8a10.68 10.68 0 0 1 .34-1.23l-5-.55v2.4a2.53 2.53 0 0 0 5-.13v-2.4a2.53 2.53 0 0 0-2.25-2.43 2.57 2.57 0 0 0-2.72 1.88 8.35 8.35 0 0 0-.49 3.36l4.94-.77c-.1-.43 0 .38 0 .1a.49.49 0 0 1 0-.17c0-.2 0-.1 0 .27a1.09 1.09 0 0 0 .08-.31c-.14.34-.17.43-.08.25a1.37 1.37 0 0 1 .13-.2l-4.62-.53a1.58 1.58 0 0 1 .7-1.7l3.5 3.4.57-1.17a2.78 2.78 0 0 0 .22-1.94A2.52 2.52 0 0 0 96 37.18c-1.1-.55-2.92-.36-3.44 1zm.2 13.28c-5.5-4.8-12.93-3.83-18.07.9-2.4 2.2 1.22 5.7 3.6 3.52 3-2.8 7.58-3.74 10.94-.8 2.44 2.13 6-1.47 3.52-3.6z" fill="#db2a37"/><g fill="#fff"><path d="M64.67 101.06L34.9 161h105.1l-30.32-59.36" stroke="#fff" stroke-linecap="round" stroke-linejoin="round" stroke-width="12.27"/><path d="M147.66 88.33h-.42l4.4 2.43c1.3 2.42 1.22-.13 2.6-1.5a5.62 5.62 0 0 1 3.65-1.79c3.4-.27 6.9 4.58 4.83 7.8-1.38 2.13-4 2.43-4.93 5.2-1.08 3.2-.35 7.5-.34 10.8 0 6.43 10 6.2 10-.25 0-1.77-.6-4.86 0-6.5l-.54.26a16.5 16.5 0 0 0 2.1-1.52 12.92 12.92 0 0 0 4-8.16c.7-6.24-2.32-13.33-8.13-16.17a15.29 15.29 0 0 0-16.25 2c-4.06 3.27-8.32 9.76-5.52 15a5 5 0 0 0 4.41 2.42h.42c6.43-.08 6.2-10.08-.24-10zM166.58 126v-.08l.2 1.28-.15 1.33-.5 1.25-.78 1-1 .8-1.17.5h.06l-1.28.2h.06l-1.33-.14a.42.42 0 0 1 .16 0l-1.25-.5.16.1-1-.78.1.1-.8-1 .07.12-.52-1.17a.29.29 0 0 1 0 .09l-.2-1.28a7.45 7.45 0 0 0 .31 2.15 5.55 5.55 0 0 0 2.48 3.13 5.12 5.12 0 0 0 1.36.53 5.23 5.23 0 0 0 2.72-.06 3.65 3.65 0 0 0 1.67-.91 3.76 3.76 0 0 0 1.28-1.43 3.83 3.83 0 0 0 .57-1.91 3.7 3.7 0 0 0-.13-1.95 5 5 0 0 0-2.34-3l-1.25-.5a5 5 0 0 0-2.61 0h0l1.28-.2h-.05l1.33.15h-.08l1.25.5 1 .77a.18.18 0 0 1-.07 0l.8 1a.75.75 0 0 1-.07-.12l.5 1.17a2.29 2.29 0 0 1-.07-.28l.2 1.28a10.69 10.69 0 0 0-.24-1.94 5.59 5.59 0 0 0-2.64-3.26l-.67-.27-.66-.26h-.12a5.2 5.2 0 0 0-2.74.07 4.25 4.25 0 0 0-1.19.53l-1 .8a4.49 4.49 0 0 0-.81 1.08 5.06 5.06 0 0 0-.43 4 5.55 5.55 0 0 0 2.35 3 3.83 3.83 0 0 0 1.91.57 3.71 3.71 0 0 0 1.95-.13 5.07 5.07 0 0 0 2.95-2.34l.5-1.25a5 5 0 0 0-.06-2.61zM10.4 9.9l-.4-.44 1.36 4.8c.48-1.53 5.67-2.5 7.45-1.7 3.47 1.53 3.66 7.17.52 9.15-2.27 1.42-4.35.45-6.5 2.73s-3.3 6.2-4.6 9c-2.72 5.8 6 10.74 8.72 4.9 1.32-2.82 2.45-5.92 4.2-8.48L18.2 32.2c2.42-.82 4.63-.72 6.87-2.2a13.68 13.68 0 0 0 5-6.38c2.15-5.22 2-11.58-1.75-16C21.4-.7 5.06.9 1.62 11.82A5 5 0 0 0 3 16.61l.44.44C8 21.6 15 14.43 10.4 9.9zm-.54 41.6a.36.36 0 0 1 0-.11L8.6 53.7l-1 .8-1.17.5H3.9 4l-1.25-.5.1.06-1-.78a.6.6 0 0 1 .08.08l-.8-1 .07.14-.52-1.15a.65.65 0 0 1 0 .13L.52 50.7a.53.53 0 0 1 0 .13l.15-1.34a.28.28 0 0 1 0 .13l.5-1.25a7.1 7.1 0 0 0-.9 3.36A5.3 5.3 0 0 0 1 54.42a5.59 5.59 0 0 0 3.26 2.39 3.87 3.87 0 0 0 2 0A3.81 3.81 0 0 0 8 56.24a3.75 3.75 0 0 0 1.4-1.31 3.81 3.81 0 0 0 .88-1.76 5 5 0 0 0-.57-3.79l-.8-1a5.08 5.08 0 0 0-2.24-1.28H6.6l1.25.5H7.8l1 .78.8 1 .5 1.17a.45.45 0 0 1 0-.11l.2 1.28a.33.33 0 0 1 0-.14l-.15 1.34a1.86 1.86 0 0 1 .13-.46l-.5 1.24.38-.9a5.22 5.22 0 0 0 .28-.75 7.31 7.31 0 0 0 .15-1.4 8 8 0 0 0-.22-1.37c-.1-.37-.93-1.9-.54-1.26a5.65 5.65 0 0 0-.92-1.19 5.85 5.85 0 0 0-.59-.46 4.69 4.69 0 0 0-.6-.44 10.8 10.8 0 0 0-1.29-.51 3.73 3.73 0 0 0-2-.05 2.63 2.63 0 0 0-1.26.36 5 5 0 0 0-1.62 1.07 10.64 10.64 0 0 0-.8 1.07c.2-.34-.47.92-.52 1.35a3.77 3.77 0 0 0 0 2 3.73 3.73 0 0 0 .61 1.81A3.73 3.73 0 0 0 2 54.25a3.77 3.77 0 0 0 1.77.89 5 5 0 0 0 3.78-.57l1-.8a5.06 5.06 0 0 0 1.31-2.28z"/></g></svg>