<svg xmlns="http://www.w3.org/2000/svg" viewBox="0 0 241.27 162.32" xmlns:v="https://vecta.io/nano"><style><![CDATA[.H{fill:#ffc7c7}.I{stroke-width:.3}.J{stroke-miterlimit:10}]]></style><g stroke="#ffc7c7"><g stroke-width=".27"><path d="M21.1 57.27C-1 82.42-5.93 115.43 7.74 137.9c10.53 17.3 40.05 24.3 52.06 24.3 11.75 0 33.9-6.14 43.52-20.56C116.48 121.9 120.6 97.7 94 53" fill="#fff" class="J"/><ellipse cx="57.94" cy="106.79" rx="27.5" ry="21.22" class="H"/></g><ellipse cx="31.77" cy="134.29" rx="7.34" ry="9.08" transform="matrix(.314821 -.949151 .949151 .314821 -105.69 122.16)" class="H I"/><ellipse cx="57.8" cy="141.77" rx="10.01" ry="7.34" stroke-width=".31" class="H"/><ellipse cx="84.15" cy="134.34" rx="9.08" ry="7.34" transform="matrix(.949151 -.314821 .314821 .949151 -38.02 33.33)" class="H I"/><g stroke-width=".27"><path d="M148.6 56.53c-22.1 25.16-27 58.17-13.34 80.63 10.52 17.3 40 24.3 52.06 24.3 11.74 0 33.9-6.14 43.5-20.56C244 121.16 248.1 97 221.48 52.26" fill="#fff" class="J"/><ellipse cx="185.44" cy="106.06" rx="27.5" ry="21.22" class="H"/></g><ellipse cx="159.27" cy="133.56" rx="7.34" ry="9.08" transform="matrix(.314821 -.949151 .949151 .314821 -17.64 242.68)" class="H I"/><ellipse cx="185.3" cy="141.03" rx="10.01" ry="7.34" stroke-width=".31" class="H"/><ellipse cx="211.65" cy="133.6" rx="9.08" ry="7.34" transform="matrix(.949151 -.314821 .314821 .949151 -31.3 73.43)" class="H I"/></g><path d="M34.84 0H209.7v72.9H34.84z" fill="#bfd6ce"/><path d="M194.53 11.2V9.37h6.68V7.9h1.6v3.3zm4.15 7.98c-2.9 0-4.35-1.36-4.35-3.17s1.45-3.17 4.35-3.17S203 14.2 203 16s-1.42 3.18-4.32 3.18zm0-4.6c-1.88 0-2.74.6-2.74 1.42s.86 1.42 2.74 1.42 2.74-.6 2.74-1.42-.85-1.42-2.74-1.42zm0 11.76c-2.9 0-4.35-1.37-4.35-3.18s1.45-3.16 4.35-3.16 4.32 1.36 4.32 3.16-1.42 3.18-4.32 3.18zm0-4.6c-1.88 0-2.74.6-2.74 1.42s.86 1.43 2.74 1.43 2.74-.6 2.74-1.43-.85-1.42-2.74-1.42zm0 11.76c-2.9 0-4.35-1.36-4.35-3.17s1.45-3.17 4.35-3.17S203 28.5 203 30.32s-1.42 3.17-4.32 3.17zm0-4.6c-1.88 0-2.74.6-2.74 1.42s.86 1.42 2.74 1.42 2.74-.6 2.74-1.42-.85-1.42-2.74-1.42zm0 11.74c-2.9 0-4.35-1.36-4.35-3.17s1.45-3.17 4.35-3.17 4.32 1.36 4.32 3.17-1.42 3.17-4.32 3.17zm0-4.6c-1.88 0-2.74.6-2.74 1.42s.86 1.43 2.74 1.43 2.74-.6 2.74-1.43-.85-1.42-2.74-1.42z" fill="#282828"/><path d="M43.92 7.48h36.84v58.74H43.92z" fill="#fff"/><path d="M49.07 66h-2.65v-9.57h-2.1v-2.3h4.76zm11.46-5.93c0 4.17-2 6.26-4.56 6.26s-4.56-2.1-4.56-6.26 2-6.27 4.56-6.27 4.56 2.1 4.56 6.27zm-6.6 0c0 2.7.88 3.93 2 3.93S58 62.78 58 60.07s-.88-4-2.05-4-2.03 1.28-2.03 4zm16.9 0c0 4.17-2 6.26-4.57 6.26s-4.56-2.1-4.56-6.26 2-6.27 4.56-6.27 4.57 2.1 4.57 6.27zm-6.6 0c0 2.7.87 3.93 2 3.93s2-1.22 2-3.93-.88-4-2-4-2 1.28-2 4zm16.9 0c0 4.17-2 6.26-4.56 6.26S72 64.24 72 60.07s2-6.27 4.56-6.27 4.56 2.1 4.56 6.27zm-6.6 0c0 2.7.88 3.93 2 3.93s2-1.22 2-3.93-.88-4-2-4-2 1.28-2 4zm16.9 0c0 4.17-2 6.26-4.57 6.26s-4.56-2.1-4.56-6.26 2-6.27 4.56-6.27 4.57 2.1 4.57 6.27zm-6.6 0c0 2.7.87 3.93 2 3.93s2.05-1.22 2.05-3.93-.88-4-2.05-4-2 1.28-2 4z" fill="#282828"/><g fill="#fff"><circle cx="155.25" cy="30.17" r="15.48"/><path d="M134.2 66.7c-2-16.5 10-29.08 20.47-29.33 10.84-.27 23.85 12.5 21.72 29.63m-70-50.08h-7.76V9.4h7.76zm-5.75 4.42h9.9v1.47H99.1v-4.5h1.55zm4.22-10.53h-4.7v4.7h4.7zm7.18 1.56v1.55h-1.86v5.48h-1.54V9.06h1.54v3.3z"/><path d="M116.8 16.84h-3.67V15.5h5.48A12.11 12.11 0 0 0 123 15v1.34a12.35 12.35 0 0 1-4.39.55h-.24v2.5h-1.57zm-2.88-5c0-1.74 1.63-2.7 3.93-2.7s3.93 1 3.93 2.7-1.6 2.73-3.93 2.73-3.93-1-3.93-2.77zm12 9.64v1.37h-11.6V18.6h1.54v2.85zm-10.5-9.68c0 1 1 1.46 2.42 1.46s2.43-.5 2.43-1.46-1-1.43-2.43-1.43-2.42.47-2.42 1.43zm8.65 6V9.06h1.54V20h-1.54v-.86h-4v-1.3zm71.23 27.05l.08.07a1 1 0 0 0 .44.28 1 1 0 0 0 .52.1 1.06 1.06 0 0 0 .5-.12 1.07 1.07 0 0 0 .42-.28l.2-.28a1.27 1.27 0 0 0 .17-.69v-.34a1.33 1.33 0 0 0-.35-.58l-.07-.07a1 1 0 0 0-.44-.27 1.08 1.08 0 0 0-.53-.11 1.52 1.52 0 0 0-.92.4l-.2.28a1.47 1.47 0 0 0-.17.69l.06.34a1.31 1.31 0 0 0 .34.58zm-.15 4.63l.07.07a1 1 0 0 0 .44.27 1 1 0 0 0 .52.11 1.06 1.06 0 0 0 .5-.12 1 1 0 0 0 .43-.28l.2-.28a1.39 1.39 0 0 0 .18-.69l-.06-.34a1.25 1.25 0 0 0-.35-.58l-.07-.07a1 1 0 0 0-.44-.28 1 1 0 0 0-.52-.1 1.06 1.06 0 0 0-.5.12 1 1 0 0 0-.42.28l-.2.28a1.27 1.27 0 0 0-.17.69l.05.34a1.39 1.39 0 0 0 .35.58zm0 4.8l.07.07a.9.9 0 0 0 .44.28 1 1 0 0 0 .52.1.86.86 0 0 0 .5-.12 1 1 0 0 0 .43-.28l.2-.28a1.36 1.36 0 0 0 .18-.68l-.06-.35a1.3 1.3 0 0 0-.35-.58l-.07-.07a1 1 0 0 0-.44-.27 1 1 0 0 0-.52-.11 1 1 0 0 0-.5.13.92.92 0 0 0-.42.28l-.2.27a1.31 1.31 0 0 0-.17.69l.05.34a1.28 1.28 0 0 0 .35.58z"/></g></svg>