<svg xmlns="http://www.w3.org/2000/svg" width="757.333" height="170.667" viewBox="0 0 568 128" preserveAspectRatio="xMidYMid meet" fill="#db2a37" xmlns:v="https://vecta.io/nano"><path d="M301.5 1.5c-17.8 2.9-29.9 8.8-32.2 15.5-.6 2-5.3 21.6-10.3 43.5-9.5 41.1-9.7 42.6-5.3 43.3 3.7.6 3.2 2.2 16.9-57.3l3.8-16.1c.3-.8 2.1-.4 5.5 1.3 11.7 5.5 18.8 6.7 42.1 6.7 23.5 0 30.8-1.2 41.9-6.8 2.8-1.4 5.2-2.6 5.4-2.6.8 0 6.6 19.3 8.8 29 5.6 25.3-1.5 42.2-21.6 51.6-9.7 4.5-17 5.7-31.6 5.2-10.8-.3-13.1-.7-17.9-2.9-7.3-3.4-12.6-8.1-14.1-12.6-.7-2.1-.9-6.9-.7-12.2.5-9 3.9-19.4 9.5-29l2.6-4.5 2.3 5.1c3 6.9 4.8 7.7 15.7 7 9.5-.6 11.7-1.6 11.7-5.3 0-2.6 2-7.4 3-7.4.4 0 2.5 2.5 4.5 5.5 4.1 5.9 7.5 7.2 9.4 3.6.8-1.5.2-3.1-3.1-8-6.1-9.2-8.4-11.4-11.1-10.5-3.5 1-6.4 4.2-8.6 9.5l-2.2 4.9h-11.5l-1.8-5.3c-3.9-11.2-6.1-12.1-12.6-5.1-8 8.6-15.1 26.7-15.7 39.9-.6 11.8 1.7 18.6 8.4 24.5 9.8 8.6 20.8 11.6 39.1 10.7 19.4-.9 32.1-5.8 42.7-16.2 16-15.7 17.3-32 5.5-70.5-2.7-9.1-5-17.3-5-18.2 0-2.9-6.8-8.5-13.4-11.1-3.4-1.4-9.8-3.3-14.2-4.2-11-2.3-34.5-2.8-45.9-1zm-76.3 24.7c-.8.8-1.2 5.6-1.2 15 0 7.6-.2 13.8-.5 13.8-.2 0-2.4-1-4.7-2.2-3.2-1.7-6-2.3-10.8-2.3-14.4 0-25.4 10.8-25.4 25 .1 22.1 25.6 33.7 42.1 19.1 8-7.1 8.3-8.1 8.3-39.7 0-28.9-.1-29.9-4.5-29.9-1.2 0-2.6.5-3.3 1.2zm-10.6 35.4c10 4.7 11.9 17.6 3.9 25.4-3 2.9-4.3 3.4-9.2 3.7-7.5.5-11.9-1.8-15.1-7.8-7-13.1 7-27.6 20.4-21.3zM25.9 28.8c-5.8 3.7-9.6 9.4-11 16.5-1.2 5.7-1.2 5.7-4.8 5.7C5.7 51 4 52.4 4 56.2c0 3.2 2.4 4.8 6.9 4.8H14v18.4c0 16.5.2 18.6 1.9 20.7 1.6 2 2.3 2.2 4.7 1.4l2.9-1 .3-19.7.2-19.6 6.1-.4c6.3-.5 7.9-1.5 7.9-5.3 0-3.4-2-4.5-8.2-4.5-6.8 0-7.2-.9-3.5-8 1.4-3 3.6-5.2 6.1-6.7 4.9-2.7 6.2-4.8 4.7-7.9-1.5-3.3-5.6-3.1-11.2.4zm386.6 4.6c-2.2 3.3-.5 6.6 3.3 6.6 3.3 0 5.2-1.6 5.2-4.5 0-4.8-5.8-6.2-8.5-2.1zM62.2 53.6C41.8 63.7 44.4 94 66.1 100.4c6.6 2 8.2 2 15 0 7.1-2.1 14.9-9.8 16.8-16.7 6.1-21.5-15.9-40-35.7-30.1zm19.3 9.3c1.6.9 4 3.3 5.3 5.2 2 2.8 2.3 4.4 2 8.9-.5 6.8-2.7 10.2-8.6 13.1-12.9 6.4-26.5-6.9-20.8-20.4 3.5-8.4 13.7-11.6 22.1-6.8zm47.7-9.3c-21.3 10.6-17 42.4 6.4 47.4 8.7 1.9 17-.8 23.6-7.7 8.9-9.1 9.2-24.1.6-33.7-7.7-8.8-20.1-11.2-30.6-6zm19.8 9.3c10 7.2 9.3 21.5-1.3 27-14.5 7.4-29.1-9.7-19.7-23 4.7-6.5 14.9-8.5 21-4zm263.8-9.7c-2.1 2.1-2.1 2.5-1.5 24.1.4 14 1.1 22.5 1.8 23.3 1.4 1.7 5.1 1.8 6.7.2.9-.9 1.2-7.7 1.2-24.5 0-21.9-.1-23.3-1.9-24.3-2.8-1.5-3.8-1.3-6.3 1.2zm39.7.1c-5.9 2.8-9.9 6.6-12.8 12.2-1.9 3.4-2.2 6.1-2.5 18.6-.3 12.6-.1 14.8 1.3 16.2 2.1 2.1 4.9 2.2 6.9.1 1.3-1.2 1.6-4.1 1.6-14.6 0-11.4.3-13.5 2.1-16.8 5.7-10 20.1-10.6 26.7-1 2 3 2.2 4.5 2.2 16.4 0 10.3.3 13.6 1.6 15.4 1.7 2.4 5.3 2.9 7.2 1 1.5-1.5 1.6-26.7.2-32-3.9-13.8-21.5-21.7-34.5-15.5zm67 .1c-12.1 5.6-17.7 17.5-14.1 29.8 4.4 15.3 21.6 23 35.4 15.9 2.3-1.2 4.4-2.1 4.8-2.1 1.3 0-.8 10.6-2.8 13.9-2.9 4.7-9.6 7.5-15.6 6.6-3.7-.6-5.4-1.6-9.7-6.2-4.2-4.4-5.7-5.4-7.4-4.8-3.7 1.1-4.4 4-2.2 8.4 7.3 14.2 28.2 16.8 40 5 6.4-6.4 7.1-9.1 7.1-30.4 0-17-.3-19.5-2.1-23.5-5.9-13-20.7-18.6-33.4-12.6zm18.5 9.9c9.3 6.2 9.7 19.5.8 25.9-4.4 3.1-13.4 3.3-17.4.2-8.8-6.5-9.8-17.2-2.1-24.5 3.1-2.9 5.4-3.8 10.8-3.8 3.2-.1 5.6.6 7.9 2.2zm-208.3 7.4c-1.3 1.2-.7 5.3.7 5.3 1.7 0 2.8-2.4 2-4.5-.7-1.6-1.7-1.9-2.7-.8zm-18 1c-.4.3-.7 1.7-.7 3 0 3.5 3.4 2.6 3.8-1 .3-2.6-1.4-3.7-3.1-2zm11.4 6c-.8 1.4-1.2 1.5-2.5.4s-1.7-1.1-2.2.3c-1.6 4.1 5.6 6.4 7.6 2.5 2-3.7-.8-6.9-2.9-3.2z"/></svg>