<?xml version="1.0" standalone="no"?>
<!DOCTYPE svg PUBLIC "-//W3C//DTD SVG 20010904//EN"
 "http://www.w3.org/TR/2001/REC-SVG-20010904/DTD/svg10.dtd">
<svg version="1.0" xmlns="http://www.w3.org/2000/svg"
 width="568.000000pt" height="128.000000pt" viewBox="0 0 568.000000 128.000000"
 preserveAspectRatio="xMidYMid meet">

<g transform="translate(0.000000,128.000000) scale(0.100000,-0.100000)"
fill="#db2a37" stroke="none">
<path d="M3015 1265 c-178 -29 -299 -88 -322 -155 -6 -20 -53 -216 -103 -435
-95 -411 -97 -426 -53 -433 37 -6 32 -22 169 573 19 83 36 155 38 161 3 8 21
4 55 -13 117 -55 188 -67 421 -67 235 0 308 12 419 68 28 14 52 26 54 26 8 0
66 -193 88 -290 56 -253 -15 -422 -216 -516 -97 -45 -170 -57 -316 -52 -108 3
-131 7 -179 29 -73 34 -126 81 -141 126 -7 21 -9 69 -7 122 5 90 39 194 95
290 l26 45 23 -51 c30 -69 48 -77 157 -70 95 6 117 16 117 53 0 26 20 74 30
74 4 0 25 -25 45 -55 41 -59 75 -72 94 -36 8 15 2 31 -31 80 -61 92 -84 114
-111 105 -35 -10 -64 -42 -86 -95 l-22 -49 -57 0 -58 0 -18 53 c-39 112 -61
121 -126 51 -80 -86 -151 -267 -157 -399 -6 -118 17 -186 84 -245 98 -86 208
-116 391 -107 194 9 321 58 427 162 160 157 173 320 55 705 -27 91 -50 173
-50 182 0 29 -68 85 -134 111 -34 14 -98 33 -142 42 -110 23 -345 28 -459 10z"/>
<path d="M2252 1018 c-8 -8 -12 -56 -12 -150 0 -76 -2 -138 -5 -138 -2 0 -24
10 -47 22 -32 17 -60 23 -108 23 -144 0 -254 -108 -254 -250 1 -221 256 -337
421 -191 80 71 83 81 83 397 0 289 -1 299 -45 299 -12 0 -26 -5 -33 -12z
m-106 -354 c100 -47 119 -176 39 -254 -30 -29 -43 -34 -92 -37 -75 -5 -119 18
-151 78 -70 131 70 276 204 213z"/>
<path d="M259 992 c-58 -37 -96 -94 -110 -165 -12 -57 -12 -57 -48 -57 -44 0
-61 -14 -61 -52 0 -32 24 -48 69 -48 l31 0 0 -184 c0 -165 2 -186 19 -207 16
-20 23 -22 47 -14 l29 10 3 197 2 196 61 4 c63 5 79 15 79 53 0 34 -20 45 -82
45 -68 0 -72 9 -35 80 14 30 36 52 61 67 49 27 62 48 47 79 -15 33 -56 31
-112 -4z"/>
<path d="M4125 946 c-22 -33 -5 -66 33 -66 33 0 52 16 52 45 0 48 -58 62 -85
21z"/>
<path d="M622 744 c-204 -101 -178 -404 39 -468 66 -20 82 -20 150 0 71 21
149 98 168 167 61 215 -159 400 -357 301z m193 -93 c16 -9 40 -33 53 -52 20
-28 23 -44 20 -89 -5 -68 -27 -102 -86 -131 -129 -64 -265 69 -208 204 35 84
137 116 221 68z"/>
<path d="M1292 744 c-213 -106 -170 -424 64 -474 87 -19 170 8 236 77 89 91
92 241 6 337 -77 88 -201 112 -306 60z m198 -93 c100 -72 93 -215 -13 -270
-145 -74 -291 97 -197 230 47 65 149 85 210 40z"/>
<path d="M4128 748 c-21 -21 -21 -25 -15 -241 4 -140 11 -225 18 -233 14 -17
51 -18 67 -2 9 9 12 77 12 245 0 219 -1 233 -19 243 -28 15 -38 13 -63 -12z"/>
<path d="M4525 747 c-59 -28 -99 -66 -128 -122 -19 -34 -22 -61 -25 -186 -3
-126 -1 -148 13 -162 21 -21 49 -22 69 -1 13 12 16 41 16 146 0 114 3 135 21
168 57 100 201 106 267 10 20 -30 22 -45 22 -164 0 -103 3 -136 16 -154 17
-24 53 -29 72 -10 15 15 16 267 2 320 -39 138 -215 217 -345 155z"/>
<path d="M5195 746 c-121 -56 -177 -175 -141 -298 44 -153 216 -230 354 -159
23 12 44 21 48 21 13 0 -8 -106 -28 -139 -29 -47 -96 -75 -156 -66 -37 6 -54
16 -97 62 -42 44 -57 54 -74 48 -37 -11 -44 -40 -22 -84 73 -142 282 -168 400
-50 64 64 71 91 71 304 0 170 -3 195 -21 235 -59 130 -207 186 -334 126z m185
-99 c93 -62 97 -195 8 -259 -44 -31 -134 -33 -174 -2 -88 65 -98 172 -21 245
31 29 54 38 108 38 32 1 56 -6 79 -22z"/>
<path d="M3297 573 c-13 -12 -7 -53 7 -53 17 0 28 24 20 45 -7 16 -17 19 -27
8z"/>
<path d="M3117 563 c-4 -3 -7 -17 -7 -30 0 -35 34 -26 38 10 3 26 -14 37 -31
20z"/>
<path d="M3231 503 c-8 -14 -12 -15 -25 -4 -13 11 -17 11 -22 -3 -16 -41 56
-64 76 -25 20 37 -8 69 -29 32z"/>
</g>
</svg>
