<svg xmlns="http://www.w3.org/2000/svg" viewBox="0 0 341.47 305.31" xmlns:v="https://vecta.io/nano"><g stroke="#fff"><ellipse cx="178" cy="49.5" rx="132" ry="49" fill="#fff"/><path d="M56.5 49l-46 199" stroke-miterlimit="10" fill="none" stroke-linecap="round" stroke-width="21"/></g><g fill="#fff"><path d="M114.8 174.37c6.66-17.5 14.13-37.36 29.7-49l-14.75-5.76 9 23.93c2.9 7.68 5.1 16.75 13.92 19.45 7.12 2.18 16 1.4 23.33 1.06a194.24 194.24 0 0 0 24.87-2.87c4.5-.78 7-5.77 7.2-9.85a32.67 32.67 0 0 1 3.51-13.62 35.94 35.94 0 0 1 3.59-5.75 34.16 34.16 0 0 1 2.61-2.9l1.13-1.1c1.9-1.43 1.48-1.52-1.28-.24l-5.16-1.3c-1.35-.8 1.1 2 1.34 2.3l2.32 3.23 5.78 8 11 15.3c3.15 4.4 8.83 6.37 13.72 3.43 4.35-2.6 6.6-9.32 3.43-13.73q-8.7-12.08-17.36-24.17c-2.72-3.8-5.2-8.6-9.2-11.13a12.84 12.84 0 0 0-13.52-.08c-6.53 3.7-12 11.08-15.46 17.54a55.87 55.87 0 0 0-6.43 24.63l7.2-9.84a151.11 151.11 0 0 1-17.88 2c-1.7.1-18.66-.22-18.72 0 .05-.16 2.08 1.6 2.15 1.53a39.4 39.4 0 0 0-1.47-3.87l-10.4-27.6c-2.05-5.44-9.2-9.9-14.75-5.76-20.44 15.25-30 38.16-38.8 61.28-1.92 5.06 2.5 10.93 7.3 12.13 5.76 1.43 10.2-2.22 12.12-7.3z"/><path d="M97.8 163.1c-8.27 17.76-14 36.6-14.16 56.34-.14 17.28 2.86 38.28 14.74 51.62s28.2 22.93 44.95 28.3c17.75 5.7 37.8 6.23 56.32 5.88 37-.7 73.6-10.58 102.37-34.55 12.36-10.3 23-23.4 29.66-38.08 8.1-17.76 10.75-37.22 9.5-56.6-2.93-45.8-21.64-87.93-33.07-131.8-3.25-12.46-22.45-6.85-19.2 5.62 4.55 17.47 10.63 34.46 16 51.67a460 460 0 0 1 13.53 53.6c5.84 31.44 3.87 64.07-17.95 89.12-20.37 23.38-49.94 36-80.34 39.6a242.8 242.8 0 0 1-53.15 0 86.91 86.91 0 0 1-40.92-15c-6.26-4.3-13.58-10-16.9-17s-4.58-16.23-5.23-24c-1.6-19.12 3.23-37.7 11.25-55 2.28-4.9 1.17-10.83-3.8-13.62-4.43-2.5-11.33-1.12-13.62 3.8zm54.95 15.03a18.09 18.09 0 0 0-2 8.84 5.07 5.07 0 0 0 3.79 4.73c2 .4 4.62-.36 5.56-2.4a26.94 26.94 0 0 0 2.21-5.09c.64-2.9-.92-6.35-4-7a5.41 5.41 0 0 0-6.48 4.15 5.16 5.16 0 0 0 6.52 6.18c2.57-.5 4.2-3.8 3.4-6.2a5.12 5.12 0 0 0-6.2-3.39h-.15l4.9 1.22-.1-.07 1.3 2.17v-.13l.05 2.6-1.94 2.55-3.8.57h.17l-2.28-1.27-.5-.6-.7-2.46c.1.75.14-.53.18-.8.1-.72-.2.38-.28.54l-1 2.07 9.35 2.33v-1.3c0-.6 0-.58 0 0l.12-.63c.1-.43.25-.83.34-1.25s.08-.28-.12.23l.37-.78c1.16-2.33.6-5.55-1.9-6.8-2.3-1.17-5.57-.6-6.8 1.9zm42.63-.05l-.86 2.14a5.76 5.76 0 0 0-.54 3.22 4.79 4.79 0 0 0 1.41 2.82 5.08 5.08 0 0 0 6.06.7 7.06 7.06 0 0 0 3-7.89 5 5 0 0 0-4.26-3.52 5.08 5.08 0 0 0-4.9 2.47 9.64 9.64 0 0 0-1.08 7.65 5 5 0 0 0 9.8-1.53v-1.1c0-.37 0-.5.05-.74-.08.67-.1.8 0 .43a23.06 23.06 0 0 1 .64-2.3l-9.85-1.1v4.5a5 5 0 0 0 5.12 4.88 5.12 5.12 0 0 0 4.88-5.13v-4.5a5 5 0 0 0-4.46-4.81c-2.64-.3-4.5 1.35-5.4 3.72a15.92 15.92 0 0 0-.93 6.38l9.8-1.53c-.22-.85 0 .8 0 .23v-.3c0-.4 0-.2-.06.58a2 2 0 0 0 .16-.59c-.3.7-.36.9-.18.55a2.55 2.55 0 0 1 .24-.39l-9.15-1.05a3.21 3.21 0 0 1 1.43-3.49l6.94 6.74.85-2.13a5.5 5.5 0 0 0 .44-3.86 5 5 0 0 0-6.2-3.4 4.79 4.79 0 0 0-3 2.34zm-28.1 19.72a11.88 11.88 0 0 0 23.38-3.92 5.13 5.13 0 0 0-5.12-4.88c-2.53.06-5.17 2.43-4.88 5.12.32 3-3 4-3.78.87-1.55-6.25-11.15-3.44-9.6 2.8z"/></g></svg>