<svg xmlns="http://www.w3.org/2000/svg" viewBox="0 0 1366.37 304.81"><defs><style>.cls-1{fill:#db2a37;}.cls-2{fill:none;stroke:#db2a37;stroke-linecap:round;stroke-miterlimit:10;stroke-width:21px;}</style></defs><g id="레이어_2" data-name="레이어 2"><g id="레이어_1-2" data-name="레이어 1"><ellipse class="cls-1" cx="1202.9" cy="49" rx="132" ry="49"/><line class="cls-2" x1="1081.4" y1="48.5" x2="1035.4" y2="247.5"/><path class="cls-1" d="M1139.69,173.87c6.66-17.51,14.13-37.36,29.7-49l-14.75-5.76,9,23.93c2.9,7.68,5.09,16.75,13.92,19.45,7.12,2.18,16,1.39,23.33,1.06a194.24,194.24,0,0,0,24.87-2.87c4.49-.78,7-5.77,7.19-9.85a32.67,32.67,0,0,1,3.51-13.62,35.24,35.24,0,0,1,3.59-5.75,34.16,34.16,0,0,1,2.61-2.9l1.12-1.09c1.91-1.43,1.49-1.52-1.27-.24l-5.16-1.29c-1.35-.81,1.1,2,1.34,2.3l2.31,3.23,5.79,8,11,15.31c3.15,4.39,8.83,6.37,13.72,3.43,4.34-2.61,6.59-9.32,3.42-13.73l-17.35-24.17c-2.72-3.79-5.21-8.6-9.21-11.13a12.82,12.82,0,0,0-13.51-.08c-6.53,3.69-12,11.08-15.46,17.54a55.89,55.89,0,0,0-6.44,24.63l7.2-9.84a151.28,151.28,0,0,1-17.89,2c-1.7.1-18.65-.22-18.71,0,0-.16,2.08,1.61,2.15,1.53a39.4,39.4,0,0,0-1.47-3.87l-3.12-8.28-7.29-19.33c-2-5.44-9.2-9.9-14.75-5.76-20.44,15.25-30,38.16-38.81,61.28-1.92,5.06,2.49,10.93,7.28,12.13,5.77,1.43,10.2-2.22,12.13-7.29Z"/><path class="cls-1" d="M1122.69,162.59c-8.27,17.76-14,36.61-14.17,56.34-.14,17.28,2.87,38.28,14.74,51.62s28.21,22.93,45,28.29c17.75,5.69,37.81,6.23,56.32,5.88,37-.69,73.61-10.58,102.37-34.55,12.36-10.3,23-23.41,29.66-38.08,8.1-17.76,10.75-37.22,9.5-56.61-2.93-45.79-21.65-87.93-33.07-131.79-3.25-12.46-22.45-6.85-19.2,5.62,4.55,17.47,10.63,34.46,16,51.67a462,462,0,0,1,13.53,53.6c5.84,31.44,3.87,64.07-17.95,89.12-20.37,23.38-49.94,36-80.34,39.61a242.8,242.8,0,0,1-53.15,0,86.91,86.91,0,0,1-40.92-15c-6.26-4.29-13.58-10-16.91-17s-4.59-16.23-5.23-24c-1.61-19.12,3.23-37.71,11.25-55,2.28-4.89,1.16-10.83-3.8-13.62-4.43-2.49-11.34-1.12-13.62,3.8Z"/><path class="cls-1" d="M1177.65,177.63a18.21,18.21,0,0,0-2,8.84,5.09,5.09,0,0,0,3.79,4.73c2,.41,4.63-.36,5.57-2.4a26.27,26.27,0,0,0,2.2-5.09c.65-2.9-.91-6.35-4-7a5.41,5.41,0,0,0-6.48,4.15,5.16,5.16,0,0,0,6.52,6.18c2.57-.51,4.21-3.8,3.39-6.2a5.12,5.12,0,0,0-6.2-3.39l-.15,0,4.9,1.22-.09-.07,1.31,2.17,0-.13,0,2.61-1.94,2.55-3.79.57.17,0-2.28-1.27-.5-.61-.71-2.46c.09.75.14-.53.18-.8.11-.72-.21.38-.28.54l-1,2.07,9.35,2.33c0-.43,0-.86,0-1.29,0-.59,0-.58,0,0q0-.32.12-.63c.09-.43.25-.83.34-1.25s.08-.28-.12.23c.12-.26.24-.52.37-.78,1.16-2.33.6-5.55-1.9-6.81-2.31-1.17-5.57-.6-6.81,1.9Z"/><path class="cls-1" d="M1220.28,177.58l-.86,2.14a5.76,5.76,0,0,0-.54,3.22,4.84,4.84,0,0,0,1.4,2.82c1.59,1.41,4.21,2,6.07.7a7.06,7.06,0,0,0,3-7.89,5,5,0,0,0-4.26-3.52,5.08,5.08,0,0,0-4.9,2.47,9.69,9.69,0,0,0-1.09,7.65,5,5,0,0,0,9.8-1.53c0-.37,0-.73,0-1.1s0-.49,0-.74c-.08.67-.09.81,0,.43a23.06,23.06,0,0,1,.64-2.3l-9.85-1.09,0,4.51a5,5,0,1,0,10-.25l0-4.5a5,5,0,0,0-4.46-4.81c-2.64-.29-4.51,1.35-5.4,3.72a16.09,16.09,0,0,0-.93,6.38l9.8-1.53c-.21-.85,0,.81,0,.23a1.6,1.6,0,0,1,0-.31c0-.4,0-.2-.06.58a2,2,0,0,0,.16-.59c-.3.71-.36.9-.18.55a2.55,2.55,0,0,1,.24-.39l-9.15-1.05a3.21,3.21,0,0,1,1.43-3.49l6.93,6.74.86-2.13a5.55,5.55,0,0,0,.44-3.86,5,5,0,0,0-6.2-3.4,4.77,4.77,0,0,0-3,2.34Z"/><path class="cls-1" d="M1192.17,197.29a11.88,11.88,0,0,0,23.39-3.92,5.14,5.14,0,0,0-5.12-4.88c-2.54.06-5.17,2.43-4.88,5.12.32,3-3,4-3.79.87-1.54-6.25-11.14-3.44-9.6,2.81Z"/><path class="cls-1" d="M86.23,119.21a12.51,12.51,0,0,1-12.61,12.67l-22.26,0,.18,89.27a12.52,12.52,0,1,1-25,.05L26.33,132l-13.91,0a12.52,12.52,0,0,1-.05-25l13.91,0C26,89,32.53,72.53,44.64,60.37a60.39,60.39,0,0,1,23.74-15,12.3,12.3,0,0,1,16,7.56,12.49,12.49,0,0,1-7.55,15.95A36.61,36.61,0,0,0,62.38,78c-7.57,7.6-11.09,17.47-11.07,28.85l22.25,0A12.47,12.47,0,0,1,86.23,119.21Z"/><path class="cls-1" d="M109.35,170.25A63.47,63.47,0,1,1,173,233.59,63.51,63.51,0,0,1,109.35,170.25Zm25-.05a38.44,38.44,0,1,0,38.36-38.52A38.58,38.58,0,0,0,134.38,170.2Z"/><path class="cls-1" d="M275,169.92a63.47,63.47,0,1,1,63.6,63.34A63.5,63.5,0,0,1,275,169.92Zm25,0a38.44,38.44,0,1,0,38.36-38.52A38.58,38.58,0,0,0,300,169.87Z"/><path class="cls-1" d="M542.67,118.3l-.13-63a12.52,12.52,0,0,1,25,0l.22,113.29v.25a63.33,63.33,0,1,1-25.13-50.52Zm.1,50.58v-.26a38.64,38.64,0,1,0,0,.26Z"/><path class="cls-1" d="M610.86,77.19a12.52,12.52,0,1,1,17.67-17.73,12.52,12.52,0,0,1-17.67,17.73Zm-3.51,143.14-.2-101.91a12.52,12.52,0,0,1,25,0l.21,101.91a12.52,12.52,0,1,1-25,.05Z"/><path class="cls-1" d="M797.42,168.87l.1,50.83a12.52,12.52,0,1,1-25,.05l-.1-50.83a38.44,38.44,0,0,0-76.88.16l.11,50.82a12.52,12.52,0,1,1-25,.06l-.1-50.83a63.48,63.48,0,1,1,126.95-.26Z"/><path class="cls-1" d="M963.17,232A63.54,63.54,0,0,1,842.6,260.07a12.36,12.36,0,0,1,5.79-16.7,12.55,12.55,0,0,1,16.7,5.53,38.45,38.45,0,0,0,73-16.08c0-.25,0-.5,0-13.91a63.29,63.29,0,0,1-102-50.12A63.47,63.47,0,1,1,963,168.54ZM938,168.59a38.44,38.44,0,1,0-38.36,38.51A38.59,38.59,0,0,0,938,168.59Z"/></g></g></svg>