<svg xmlns="http://www.w3.org/2000/svg" viewBox="0 0 1374.91 304.81"><defs><style>.cls-1,.cls-3{fill:#db2a37;}.cls-2{fill:none;stroke:#db2a37;stroke-linecap:round;stroke-miterlimit:10;stroke-width:21px;}.cls-3{font-size:252.88px;font-family:Arciform, Arciform Sans;letter-spacing:0.09em;}.cls-4{letter-spacing:0.1em;}.cls-5{letter-spacing:0.09em;}.cls-6{letter-spacing:0.1em;}.cls-7{letter-spacing:0.09em;}</style></defs><g id="레이어_2" data-name="레이어 2"><g id="레이어_1-2" data-name="레이어 1"><ellipse class="cls-1" cx="1211.44" cy="49" rx="132" ry="49"/><line class="cls-2" x1="1089.94" y1="48.5" x2="1043.94" y2="247.5"/><path class="cls-1" d="M1148.23,173.87c6.67-17.51,14.13-37.36,29.7-49l-14.75-5.76,9,23.93c2.89,7.68,5.08,16.75,13.91,19.45,7.12,2.18,16,1.39,23.33,1.06a194.39,194.39,0,0,0,24.88-2.87c4.49-.78,7-5.77,7.19-9.85a32.37,32.37,0,0,1,3.51-13.62,35.88,35.88,0,0,1,3.58-5.75,34.28,34.28,0,0,1,2.62-2.9l1.12-1.09c1.91-1.43,1.48-1.52-1.28-.24l-5.16-1.29c-1.34-.81,1.11,2,1.35,2.3l2.31,3.23,5.78,8,11,15.31c3.14,4.39,8.82,6.37,13.72,3.43,4.34-2.61,6.58-9.32,3.42-13.73q-8.68-12.08-17.36-24.17c-2.71-3.79-5.21-8.6-9.2-11.13a12.84,12.84,0,0,0-13.52-.08c-6.53,3.69-12,11.08-15.45,17.54a55.89,55.89,0,0,0-6.44,24.63l7.19-9.84a151.11,151.11,0,0,1-17.88,2c-1.7.1-18.66-.22-18.71,0,0-.16,2.08,1.61,2.14,1.53a39.4,39.4,0,0,0-1.47-3.87l-3.12-8.28-7.29-19.33c-2.05-5.44-9.2-9.9-14.75-5.76-20.44,15.25-30,38.16-38.8,61.28-1.93,5.06,2.48,10.93,7.28,12.13,5.76,1.43,10.19-2.22,12.12-7.29Z"/><path class="cls-1" d="M1131.23,162.59c-8.26,17.76-14,36.61-14.16,56.34-.14,17.28,2.86,38.28,14.74,51.62s28.21,22.93,45,28.29c17.76,5.69,37.82,6.23,56.32,5.88,37-.69,73.61-10.58,102.38-34.55,12.36-10.3,23-23.41,29.65-38.08,8.11-17.76,10.75-37.22,9.51-56.61-2.94-45.79-21.65-87.93-33.08-131.79-3.24-12.46-22.44-6.85-19.19,5.62,4.55,17.47,10.63,34.46,16,51.67a459.9,459.9,0,0,1,13.52,53.6c5.84,31.44,3.87,64.07-18,89.12-20.37,23.38-49.94,36-80.33,39.61a242.89,242.89,0,0,1-53.16,0,86.88,86.88,0,0,1-40.91-15c-6.26-4.29-13.58-10-16.92-17s-4.58-16.23-5.23-24c-1.6-19.12,3.23-37.71,11.26-55,2.27-4.89,1.16-10.83-3.8-13.62-4.43-2.49-11.34-1.12-13.63,3.8Z"/><path class="cls-1" d="M1186.19,177.63a18.09,18.09,0,0,0-2,8.84,5.09,5.09,0,0,0,3.79,4.73c2,.41,4.62-.36,5.57-2.4a26.9,26.9,0,0,0,2.2-5.09c.65-2.9-.92-6.35-4-7a5.42,5.42,0,0,0-6.48,4.15,5.16,5.16,0,0,0,6.52,6.18c2.57-.51,4.21-3.8,3.4-6.2a5.14,5.14,0,0,0-6.21-3.39l-.15,0,4.9,1.22-.08-.07,1.3,2.17,0-.13.06,2.61-2,2.55-3.78.57.17,0-2.29-1.27-.5-.61-.71-2.46c.1.75.15-.53.19-.8.11-.72-.21.38-.29.54l-1,2.07,9.36,2.33c0-.43,0-.86,0-1.29,0-.59,0-.58,0,0q0-.32.12-.63c.09-.43.25-.83.33-1.25s.09-.28-.11.23c.11-.26.24-.52.37-.78,1.16-2.33.59-5.55-1.9-6.81-2.32-1.17-5.57-.6-6.82,1.9Z"/><path class="cls-1" d="M1228.82,177.58l-.85,2.14a5.77,5.77,0,0,0-.55,3.22,4.85,4.85,0,0,0,1.41,2.82,5.09,5.09,0,0,0,6.07.7,7,7,0,0,0,3-7.89,5,5,0,0,0-4.25-3.52,5.08,5.08,0,0,0-4.9,2.47,9.64,9.64,0,0,0-1.09,7.65,5,5,0,0,0,9.8-1.53c0-.37,0-.73,0-1.1s0-.49,0-.74c-.08.67-.09.81,0,.43.21-.78.36-1.54.64-2.3l-9.85-1.09,0,4.51a5,5,0,0,0,5.12,4.88,5.11,5.11,0,0,0,4.88-5.13l0-4.5a5,5,0,0,0-4.45-4.81c-2.65-.29-4.51,1.35-5.4,3.72a16.09,16.09,0,0,0-.93,6.38l9.8-1.53c-.21-.85,0,.81,0,.23a1.6,1.6,0,0,1,0-.31c0-.4,0-.2-.06.58a2,2,0,0,0,.16-.59c-.31.71-.37.9-.18.55a2.55,2.55,0,0,1,.24-.39l-9.16-1.05a3.22,3.22,0,0,1,1.44-3.49l6.93,6.74.85-2.13a5.5,5.5,0,0,0,.45-3.86,5,5,0,0,0-6.21-3.4,4.82,4.82,0,0,0-3,2.34Z"/><path class="cls-1" d="M1200.72,197.29a11.88,11.88,0,0,0,23.38-3.92,5.12,5.12,0,0,0-5.12-4.88c-2.53.06-5.16,2.43-4.87,5.12.32,3-3,4-3.79.87-1.55-6.25-11.15-3.44-9.6,2.81Z"/><text class="cls-3" transform="translate(0.43 233.96) rotate(-0.11)">f<tspan class="cls-4" x="111.01" y="0">oo</tspan><tspan class="cls-5" x="442.27" y="0">di</tspan><tspan class="cls-6" x="672.14" y="0">n</tspan><tspan class="cls-7" x="837.77" y="0">g</tspan></text></g></g></svg>