<svg xmlns="http://www.w3.org/2000/svg" viewBox="0 0 341.47 305.31"><defs><style>.cls-1,.cls-2{stroke:#000;stroke-miterlimit:10;}.cls-2{fill:none;stroke-linecap:round;stroke-width:21px;}</style></defs><g id="레이어_2" data-name="레이어 2"><g id="레이어_1-2" data-name="레이어 1"><ellipse class="cls-1" cx="178" cy="49.5" rx="132" ry="49"/><line class="cls-2" x1="56.5" y1="49" x2="10.5" y2="248"/><path d="M114.79,174.37c6.66-17.51,14.13-37.36,29.7-49l-14.75-5.76,9,23.93c2.9,7.68,5.09,16.75,13.92,19.45,7.12,2.18,16,1.39,23.33,1.06a194.24,194.24,0,0,0,24.87-2.87c4.49-.78,7-5.77,7.19-9.85a32.67,32.67,0,0,1,3.51-13.62,35.94,35.94,0,0,1,3.59-5.75,34.16,34.16,0,0,1,2.61-2.9l1.13-1.09c1.9-1.43,1.48-1.52-1.28-.24l-5.16-1.29c-1.35-.81,1.11,2,1.34,2.3l2.32,3.23,5.78,8,11,15.31c3.15,4.39,8.83,6.37,13.72,3.43,4.35-2.61,6.59-9.32,3.43-13.73q-8.69-12.08-17.36-24.17c-2.72-3.79-5.21-8.6-9.2-11.13a12.84,12.84,0,0,0-13.52-.08c-6.53,3.69-12,11.08-15.46,17.54a55.87,55.87,0,0,0-6.43,24.63l7.19-9.84a151.11,151.11,0,0,1-17.88,2c-1.71.1-18.66-.22-18.72,0,.05-.16,2.08,1.61,2.15,1.53a39.4,39.4,0,0,0-1.47-3.87l-3.12-8.28L148.94,114c-2.05-5.44-9.2-9.9-14.75-5.76-20.44,15.25-30,38.16-38.81,61.28-1.92,5.06,2.49,10.93,7.29,12.13,5.76,1.43,10.19-2.22,12.12-7.29Z"/><path d="M97.79,163.09c-8.27,17.76-14,36.61-14.16,56.34-.14,17.28,2.86,38.28,14.74,51.62s28.2,22.93,44.95,28.29c17.75,5.69,37.81,6.23,56.32,5.88,37-.69,73.61-10.58,102.37-34.55,12.36-10.3,23-23.41,29.66-38.08,8.1-17.76,10.75-37.22,9.5-56.61-2.93-45.79-21.64-87.93-33.07-131.79-3.25-12.46-22.45-6.85-19.2,5.62,4.55,17.47,10.63,34.46,16,51.67a460,460,0,0,1,13.53,53.6c5.84,31.44,3.87,64.07-17.95,89.12-20.37,23.38-49.94,36-80.34,39.61a242.8,242.8,0,0,1-53.15,0,86.91,86.91,0,0,1-40.92-15c-6.26-4.29-13.58-10-16.91-17s-4.58-16.23-5.23-24c-1.6-19.12,3.23-37.71,11.25-55,2.28-4.89,1.17-10.83-3.8-13.62-4.43-2.49-11.33-1.12-13.62,3.8Z"/><path d="M152.75,178.13a18.09,18.09,0,0,0-2,8.84,5.07,5.07,0,0,0,3.79,4.73c2,.41,4.62-.36,5.56-2.4a26.94,26.94,0,0,0,2.21-5.09c.64-2.9-.92-6.35-4-7a5.41,5.41,0,0,0-6.48,4.15,5.16,5.16,0,0,0,6.52,6.18c2.57-.51,4.21-3.8,3.39-6.2a5.12,5.12,0,0,0-6.2-3.39l-.15,0,4.9,1.22-.09-.07,1.31,2.17,0-.13.05,2.61-1.94,2.55-3.79.57.17,0-2.28-1.27-.5-.61-.71-2.46c.09.75.14-.53.18-.8.11-.72-.2.38-.28.54l-1,2.07,9.35,2.33c0-.43,0-.86,0-1.29,0-.59,0-.58,0,0l.12-.63c.09-.43.25-.83.34-1.25s.08-.28-.12.23c.12-.26.24-.52.37-.78,1.16-2.33.6-5.55-1.9-6.81-2.31-1.17-5.57-.6-6.81,1.9Z"/><path d="M195.38,178.08l-.86,2.14a5.76,5.76,0,0,0-.54,3.22,4.79,4.79,0,0,0,1.41,2.82,5.08,5.08,0,0,0,6.06.7,7.06,7.06,0,0,0,3-7.89,5,5,0,0,0-4.26-3.52,5.08,5.08,0,0,0-4.9,2.47,9.64,9.64,0,0,0-1.08,7.65,5,5,0,0,0,9.8-1.53c0-.37,0-.73,0-1.1s0-.49.05-.74c-.08.67-.09.81,0,.43a23.06,23.06,0,0,1,.64-2.3l-9.85-1.09,0,4.51a5,5,0,0,0,5.12,4.88,5.12,5.12,0,0,0,4.88-5.13l0-4.5a5,5,0,0,0-4.46-4.81c-2.64-.29-4.51,1.35-5.39,3.72a15.92,15.92,0,0,0-.93,6.38l9.8-1.53c-.22-.85,0,.81,0,.23v-.31c0-.4,0-.2-.06.58a2,2,0,0,0,.16-.59c-.3.71-.36.9-.18.55a2.55,2.55,0,0,1,.24-.39l-9.15-1.05a3.21,3.21,0,0,1,1.43-3.49l6.94,6.74.85-2.13a5.5,5.5,0,0,0,.44-3.86,5,5,0,0,0-6.2-3.4,4.79,4.79,0,0,0-3,2.34Z"/><path d="M167.28,197.79a11.88,11.88,0,0,0,23.38-3.92,5.13,5.13,0,0,0-5.12-4.88c-2.53.06-5.17,2.43-4.88,5.12.32,3-3,4-3.78.87-1.55-6.25-11.15-3.44-9.6,2.81Z"/></g></g></svg>