<svg xmlns="http://www.w3.org/2000/svg" viewBox="0 0 1366.37 304.81" xmlns:v="https://vecta.io/nano"><ellipse cx="1202.9" cy="49" rx="132" ry="49" fill="#db2a37"/><path d="M1081.4 48.5l-46 199" fill="none" stroke="#db2a37" stroke-linecap="round" stroke-miterlimit="10" stroke-width="21"/><g fill="#db2a37"><path d="M1139.7 173.87c6.66-17.5 14.13-37.36 29.7-49l-14.75-5.76 9 23.93c2.9 7.68 5.1 16.75 13.92 19.45 7.12 2.18 16 1.4 23.33 1.06a194.24 194.24 0 0 0 24.87-2.87c4.5-.78 7-5.77 7.2-9.85a32.67 32.67 0 0 1 3.51-13.62 35.24 35.24 0 0 1 3.59-5.75 34.16 34.16 0 0 1 2.61-2.9l1.12-1.1c1.9-1.43 1.5-1.52-1.27-.24l-5.16-1.3c-1.35-.8 1.1 2 1.34 2.3l2.3 3.23 5.8 8 11 15.3c3.15 4.4 8.83 6.37 13.72 3.43 4.34-2.6 6.6-9.32 3.42-13.73l-17.35-24.17c-2.72-3.8-5.2-8.6-9.2-11.13a12.82 12.82 0 0 0-13.51-.08c-6.53 3.7-12 11.08-15.46 17.54a55.89 55.89 0 0 0-6.44 24.63l7.2-9.84a151.28 151.28 0 0 1-17.89 2c-1.7.1-18.65-.22-18.7 0 0-.16 2.08 1.6 2.15 1.53a39.4 39.4 0 0 0-1.47-3.87l-10.4-27.6c-2-5.44-9.2-9.9-14.75-5.76-20.44 15.25-30 38.16-38.8 61.28-1.92 5.06 2.5 10.93 7.28 12.13 5.77 1.43 10.2-2.22 12.13-7.3z"/><path d="M1122.7 162.6c-8.27 17.76-14 36.6-14.17 56.34-.14 17.28 2.87 38.28 14.74 51.62s28.2 22.93 45 28.3c17.75 5.7 37.8 6.23 56.32 5.88 37-.7 73.6-10.58 102.37-34.55 12.36-10.3 23-23.4 29.66-38.08 8.1-17.76 10.75-37.22 9.5-56.6-2.93-45.8-21.65-87.93-33.07-131.8-3.25-12.46-22.45-6.85-19.2 5.62 4.55 17.47 10.63 34.46 16 51.67a462 462 0 0 1 13.53 53.6c5.84 31.44 3.87 64.07-17.95 89.12-20.37 23.38-49.94 36-80.34 39.6a242.8 242.8 0 0 1-53.15 0 86.91 86.91 0 0 1-40.92-15c-6.26-4.3-13.58-10-16.9-17s-4.6-16.23-5.23-24c-1.6-19.12 3.23-37.7 11.25-55 2.28-4.9 1.16-10.83-3.8-13.62-4.43-2.5-11.34-1.12-13.62 3.8zm54.95 15.03a18.21 18.21 0 0 0-2 8.84 5.09 5.09 0 0 0 3.79 4.73c2 .4 4.63-.36 5.57-2.4a26.27 26.27 0 0 0 2.2-5.09c.65-2.9-.9-6.35-4-7a5.41 5.41 0 0 0-6.48 4.15 5.16 5.16 0 0 0 6.52 6.18c2.57-.5 4.2-3.8 3.4-6.2a5.12 5.12 0 0 0-6.2-3.39h-.15l4.9 1.22-.1-.07 1.3 2.17v-.13 2.6l-1.94 2.55-3.8.57h.17l-2.28-1.27-.5-.6-.7-2.46c.1.75.14-.53.18-.8.1-.72-.2.38-.28.54l-1 2.07 9.35 2.33v-1.3c0-.6 0-.58 0 0q0-.32.12-.63c.1-.43.25-.83.34-1.25s.08-.28-.12.23l.37-.78c1.16-2.33.6-5.55-1.9-6.8-2.3-1.17-5.57-.6-6.8 1.9zm42.63-.05l-.86 2.14a5.76 5.76 0 0 0-.54 3.22 4.84 4.84 0 0 0 1.4 2.82c1.6 1.4 4.2 2 6.07.7a7.06 7.06 0 0 0 3-7.89 5 5 0 0 0-4.26-3.52 5.08 5.08 0 0 0-4.9 2.47 9.69 9.69 0 0 0-1.09 7.65 5 5 0 0 0 9.8-1.53v-1.84c-.08.67-.1.8 0 .43a23.06 23.06 0 0 1 .64-2.3l-9.85-1.1v4.5a5.002 5.002 0 1 0 10-.25v-4.5a5 5 0 0 0-4.46-4.81c-2.64-.3-4.5 1.35-5.4 3.72a16.09 16.09 0 0 0-.93 6.38l9.8-1.53c-.2-.85 0 .8 0 .23a1.6 1.6 0 0 1 0-.31c0-.4 0-.2-.06.58a2 2 0 0 0 .16-.59c-.3.7-.36.9-.18.55a2.55 2.55 0 0 1 .24-.39l-9.15-1.05a3.21 3.21 0 0 1 1.43-3.49l6.93 6.74.86-2.13a5.55 5.55 0 0 0 .44-3.86 5 5 0 0 0-6.2-3.4 4.77 4.77 0 0 0-3 2.34zm-28.1 19.72a11.88 11.88 0 0 0 23.39-3.92 5.14 5.14 0 0 0-5.12-4.88c-2.54.06-5.17 2.43-4.88 5.12.32 3-3 4-3.8.87-1.54-6.25-11.14-3.44-9.6 2.8zM86.23 119.2a12.51 12.51 0 0 1-12.61 12.67H51.36l.18 89.27a12.52 12.52 0 1 1-25 .05l-.2-89.2h-13.9a12.52 12.52 0 0 1-.05-25h13.9c-.3-18 6.24-34.46 18.35-46.62a60.39 60.39 0 0 1 23.74-15 12.3 12.3 0 0 1 16 7.56 12.49 12.49 0 0 1-7.55 15.95A36.61 36.61 0 0 0 62.38 78c-7.57 7.6-11.1 17.47-11.07 28.85h22.25a12.47 12.47 0 0 1 12.67 12.36zm23.12 51.05A63.47 63.47 0 1 1 173 233.59a63.51 63.51 0 0 1-63.65-63.34zm25-.05a38.44 38.44 0 1 0 38.36-38.52 38.58 38.58 0 0 0-38.33 38.52zm140.65-.28a63.47 63.47 0 1 1 63.6 63.34 63.5 63.5 0 0 1-63.6-63.34zm25 0a38.44 38.44 0 1 0 38.36-38.52A38.58 38.58 0 0 0 300 169.87zm242.67-51.62l-.13-63a12.52 12.52 0 0 1 25 0l.22 113.54a63.33 63.33 0 1 1-25.13-50.52zm.1 50.58v-.26a38.64 38.64 0 1 0 0 .26zm68.1-91.68a12.52 12.52 0 1 1 17.67-17.73 12.52 12.52 0 0 1-17.67 17.73zm-3.5 143.14l-.2-101.9a12.52 12.52 0 0 1 25 0l.2 101.9a12.52 12.52 0 1 1-25 .05zm190.06-51.47l.1 50.83a12.52 12.52 0 1 1-25 .05l-.1-50.83a38.44 38.44 0 0 0-76.88.16l.1 50.82a12.52 12.52 0 1 1-25 .06l-.1-50.83a63.48 63.48 0 1 1 126.95-.26zM963.17 232a63.54 63.54 0 0 1-120.57 28.07 12.36 12.36 0 0 1 5.79-16.7 12.55 12.55 0 0 1 16.7 5.53 38.45 38.45 0 0 0 73-16.08v-13.9a63.29 63.29 0 0 1-102-50.12 63.47 63.47 0 1 1 126.91-.25zM938 168.6a38.44 38.44 0 1 0-38.36 38.51A38.59 38.59 0 0 0 938 168.59z"/></g></svg>