<svg xmlns="http://www.w3.org/2000/svg" viewBox="0 0 963.17 252.7" fill="#db2a37" xmlns:v="https://vecta.io/nano"><path d="M86.23 76.3A12.52 12.52 0 0 1 73.62 89H51.36l.18 89.27a12.52 12.52 0 1 1-25 .05l-.17-89.27h-13.9a12.52 12.52 0 0 1-.05-25h13.9c-.3-18 6.25-34.4 18.36-46.57a60.28 60.28 0 0 1 23.74-15 12.29 12.29 0 0 1 16 7.56A12.48 12.48 0 0 1 76.78 26a36.63 36.63 0 0 0-14.4 9.14C54.8 42.73 51.3 52.6 51.3 64h22.25a12.47 12.47 0 0 1 12.67 12.3zm23.12 51.03A63.47 63.47 0 1 1 173 190.68a63.51 63.51 0 0 1-63.65-63.35zm25 0a38.44 38.44 0 1 0 38.36-38.51 38.59 38.59 0 0 0-38.33 38.46zM275 127a63.47 63.47 0 1 1 63.6 63.35A63.51 63.51 0 0 1 275 127zm25 0a38.44 38.44 0 1 0 38.36-38.51A38.58 38.58 0 0 0 300 127zm242.67-51.62l-.13-63a12.52 12.52 0 0 1 25-.05l.22 113.54a63.33 63.33 0 1 1-25.13-50.53zm.1 50.58v-.25a38.65 38.65 0 1 0 0 .25zm68.1-91.68a12.84 12.84 0 0 1-3.81-8.84 12.52 12.52 0 0 1 21.48-8.9 12.52 12.52 0 0 1-17.67 17.74zm-3.5 143.14l-.2-101.9a12.52 12.52 0 0 1 25-.05l.2 101.9a12.52 12.52 0 1 1-25 0zM797.42 126l.1 50.83a12.52 12.52 0 1 1-25 .05l-.1-50.83a38.44 38.44 0 0 0-76.88.15l.1 50.83a12.52 12.52 0 1 1-25 0l-.1-50.83a63.48 63.48 0 0 1 126.87-.2zm165.75 63.1a63.54 63.54 0 0 1-120.57 28.06 12.35 12.35 0 0 1 5.79-16.7 12.54 12.54 0 0 1 16.7 5.53 38.45 38.45 0 0 0 73-16.08V176a64.18 64.18 0 0 1-38.41 13.23 63.48 63.48 0 1 1 63.32-63.6zM938 125.68a38.44 38.44 0 1 0-38.36 38.51A38.57 38.57 0 0 0 938 125.68z"/></svg>