<svg xmlns="http://www.w3.org/2000/svg" viewBox="0 0 963.17 252.7"><defs><style>.cls-1{fill:#fff;}</style></defs><g id="레이어_2" data-name="레이어 2"><g id="레이어_1-2" data-name="레이어 1"><path class="cls-1" d="M86.23,76.3A12.52,12.52,0,0,1,73.61,89L51.36,89l.18,89.27a12.52,12.52,0,1,1-25,.05l-.17-89.27-13.91,0a12.52,12.52,0,0,1-.05-25l13.9,0c-.28-18,6.26-34.41,18.37-46.57a60.28,60.28,0,0,1,23.74-15,12.29,12.29,0,0,1,16,7.56A12.48,12.48,0,0,1,76.78,26a36.63,36.63,0,0,0-14.4,9.14C54.81,42.73,51.29,52.6,51.31,64l22.25,0A12.47,12.47,0,0,1,86.23,76.3Z"/><path class="cls-1" d="M109.35,127.33A63.47,63.47,0,1,1,173,190.68,63.51,63.51,0,0,1,109.35,127.33Zm25,0a38.44,38.44,0,1,0,38.36-38.51A38.59,38.59,0,0,0,134.38,127.28Z"/><path class="cls-1" d="M275,127a63.47,63.47,0,1,1,63.6,63.35A63.5,63.5,0,0,1,275,127Zm25,0a38.44,38.44,0,1,0,38.36-38.51A38.58,38.58,0,0,0,300,127Z"/><path class="cls-1" d="M542.67,75.38l-.13-63a12.52,12.52,0,0,1,25-.05l.22,113.29v.25a63.33,63.33,0,1,1-25.13-50.53Zm.1,50.58v-.25a38.65,38.65,0,1,0,0,.25Z"/><path class="cls-1" d="M610.86,34.28a12.84,12.84,0,0,1-3.81-8.84,12.52,12.52,0,0,1,21.48-8.9,12.52,12.52,0,0,1-17.67,17.74Zm-3.51,143.14-.2-101.91a12.52,12.52,0,0,1,25-.05l.21,101.91a12.52,12.52,0,1,1-25,0Z"/><path class="cls-1" d="M797.42,126l.1,50.83a12.52,12.52,0,1,1-25,.05l-.1-50.83a38.44,38.44,0,0,0-76.88.15l.11,50.83a12.52,12.52,0,1,1-25,0l-.1-50.83A63.48,63.48,0,0,1,797.42,126Z"/><path class="cls-1" d="M963.17,189.1A63.54,63.54,0,0,1,842.6,217.16a12.35,12.35,0,0,1,5.79-16.7,12.54,12.54,0,0,1,16.7,5.53,38.45,38.45,0,0,0,73-16.08c0-.25,0-.51,0-13.91a64.18,64.18,0,0,1-38.41,13.23A63.48,63.48,0,1,1,963,125.63ZM938,125.68a38.44,38.44,0,1,0-38.36,38.51A38.59,38.59,0,0,0,938,125.68Z"/></g></g></svg>