<svg xmlns="http://www.w3.org/2000/svg" viewBox="0 0 212.95 132.49" xmlns:v="https://vecta.io/nano"><style><![CDATA[.E{stroke-linecap:round}.F{stroke-linejoin:round}.G{stroke-width:9.73}]]></style><g fill="#fff"><path d="M12.9 25.9c-5.5 12.7-9.3 27.92-.42 40.6A31 31 0 0 0 26 76.23c3 .84 5.5 2.1 8.46 2.53 9.24 1.32 20.3 1.7 28.34-1.26 9.06-3.34 14.3-9.84 16.92-21.15 2.54-11-3-25.8-7.6-33.84-3-5.1-8.76-12.5-11.43-17.1a1.49 1.49 0 0 0-.89-.77 1.73 1.73 0 0 0-1.38.51c-1.84 1.52-2.9 10.4-6.78 13.8-3.66 3.2-8.9.76-16.57 1a3.27 3.27 0 0 1-2.06-.53 3.42 3.42 0 0 1-1.2-1.94c-1.6-6-3.42-12.7-5-13.24S21.63 8 12.3 27.56"/><path d="M9.22 23.8C4.73 34.38 1.3 45.88 3.88 57.4 6.35 68.4 14.56 76.52 25 80.33 43.17 87 71.14 86.8 80.67 66.64c9.9-21-1.43-41.43-13.26-58.64C65.46 5.16 63.74.52 59.7.4c-4.23-.13-5.92 3.9-7.1 7.2s-1.9 8.4-6 8.77c-2.7.25-5.54-.48-8.23-.62a17.65 17.65 0 0 1-3.36 0q1.72 1.55.43-1.07l-.9-3.27C32.86 5.8 28.9-4.47 22 2.15 15.8 8.08 12.2 18 8.62 25.5c-2.35 4.9 5 9.07 7.37 4.15 3.32-6.93 6.55-14.36 11.15-20.58.14-.2 1-.87 1-1.12s0 .25 0 .06l-1.53.44Q23.15 6 24.27 7.7c-.32.66 1.8 5.05 2.1 6.07.64 2.18.95 4.76 2.1 6.77 2.26 3.9 6.2 3.5 10.07 3.7s8.1 1.27 12 .05c3.44-1.08 5.8-3.75 7.37-6.9a46.18 46.18 0 0 0 2.2-5.58c.24-.7.5-1.42.72-2.13.48-1.65.78-1.08.18-1l-3.27-.38c-1.83-1.14.72 1.5 1.28 2.33l2.4 3.48c2 2.8 4 5.54 5.8 8.4a61.13 61.13 0 0 1 7.38 17c3.17 11.86 1.28 27.17-11 33.1-6.47 3.13-14.15 3.2-21.18 2.76-7.32-.44-15-2-21.1-6.3C7.33 59.32 10.9 41.38 16.6 28c2.1-5-5.25-9.16-7.37-4.16z"/></g><path d="M32.56 30.23a7.57 7.57 0 0 0-.82 3.68 2 2 0 0 0 3.75.94 11.42 11.42 0 0 0 .92-2.13 2.34 2.34 0 0 0-1.62-2.82 2.17 2.17 0 0 0-2.6 1.67 2.13 2.13 0 0 0 .55 2 2.16 2.16 0 0 0 2.06.5 2 2 0 0 0 1.36-2.48 2.06 2.06 0 0 0-2.48-1.36h-.07l2 .5.52.87v-.06 1l-.77 1-1.52.23h.07l-.9-.5-.25-.26-.3-1c0 .3.08-.2.07-.3s0-.14 0 0l-.12.27-.4.87 3.74.93v-.54c0-.24 0-.25 0 0a2 2 0 0 1 0-.26c0-.18.1-.36.14-.53s0-.12 0 .07c0-.1.1-.22.16-.33a2.011 2.011 0 0 0-3.49-2zm18.04-.03l-.36.9a2.27 2.27 0 0 0-.23 1.29 1.88 1.88 0 0 0 .56 1.12 2 2 0 0 0 2.43.28 2.86 2.86 0 0 0 1.22-3.2 2 2 0 0 0-1.7-1.41 2 2 0 0 0-2 1 4 4 0 0 0-.45 3.15 2 2 0 0 0 3.94-.63 3.53 3.53 0 0 1 0-.46v-.17l.27-1-3.94-.43v1.9a2 2 0 0 0 2 1.95 2 2 0 0 0 2-2v-1.9a2 2 0 0 0-1.78-1.92 2 2 0 0 0-2.16 1.48 6.57 6.57 0 0 0-.39 2.65l4-.6c-.1-.35 0 .3 0 .07v-.13c0-.16 0-.1 0 .2a1 1 0 0 0 .06-.25c-.1.27-.13.34-.06.2a1.4 1.4 0 0 1 .1-.16l-3.66-.42a1.23 1.23 0 0 1 .56-1.34l2.77 2.7.36-.9a2.24 2.24 0 0 0 .18-1.55 2 2 0 0 0-3.67-.42zm-11.88 8.26a4.91 4.91 0 0 0 9.66-1.62c-.27-2.54-4.27-2.47-4 .1.16 1.4-1.46 1.85-1.82.4-.62-2.5-4.46-1.38-3.84 1.12z" fill="#db2a37"/><path d="M28.46 80.1l-23.6 47.52H88.2L64.16 80.56" fill="#fff" stroke="#fff" class="E F G"/><g opacity=".47" fill="#fff"><path d="M74.43 25.9c-5.5 12.7-9.3 27.92-.43 40.6a31 31 0 0 0 13.54 9.73c3 .85 5.5 2.1 8.46 2.54 9.24 1.32 20.3 1.7 28.34-1.27 9.06-3.34 14.3-9.84 16.92-21.15 2.53-11-3-25.8-7.62-33.84-2.94-5.08-8.76-12.5-11.42-17.1a1.5 1.5 0 0 0-.89-.78 1.77 1.77 0 0 0-1.39.51c-1.84 1.52-2.9 10.4-6.78 13.8-3.66 3.2-8.9.76-16.56 1a3.35 3.35 0 0 1-2.09-.54 3.37 3.37 0 0 1-1.2-1.94c-1.6-6-3.43-12.7-5-13.23S83.16 8 73.84 27.57"/><path d="M70.75 23.82c-4.5 10.56-7.93 22.06-5.34 33.58 2.48 11 10.68 19.13 21.1 22.93 18.18 6.67 46.16 6.5 55.68-13.7 9.9-21-1.43-41.43-13.25-58.64C127 5.16 125.27.53 121.23.4c-4.23-.13-5.92 3.9-7.1 7.2s-1.9 8.4-6 8.77c-2.7.25-5.54-.48-8.22-.6a18.63 18.63 0 0 1-3.37 0q1.73 1.53.43-1.08l-.9-3.27C94.4 5.8 90.43-4.47 83.52 2.16 77.35 8.08 73.74 18 70.15 25.5c-2.34 4.9 5 9.07 7.37 4.15 3.33-6.93 6.55-14.35 11.15-20.58.14-.2 1-.87 1-1.1s0 .24 0 .06l-1.53.43c-2.3-1.65-3.07-1.9-2.33-.74-.32.65 1.8 5 2.1 6.06.64 2.2.95 4.76 2.1 6.77 2.25 3.9 6.2 3.5 10.07 3.7s8.1 1.27 12 0c3.43-1.08 5.8-3.75 7.37-6.9a46.13 46.13 0 0 0 2.19-5.58c.25-.7.5-1.4.72-2.13.48-1.65.78-1.07.18-1l-3.26-.38c-1.84-1.14.7 1.5 1.27 2.33a165.24 165.24 0 0 0 2.4 3.48c1.94 2.8 3.95 5.54 5.78 8.4a61.08 61.08 0 0 1 7.39 17c3.16 11.85 1.27 27.17-11 33.1-6.48 3.12-14.16 3.2-21.2 2.76-7.32-.45-15-2.05-21.1-6.3-14-9.73-10.4-27.68-4.7-41.1 2.1-5-5.24-9.16-7.37-4.15z"/><path d="M90 80.1l-23.6 47.52h83.33L125.7 80.56" stroke="#fff" class="E F G"/></g><g opacity=".47" fill="#fff"><path d="M132.8 25.9c-5.5 12.7-9.3 27.92-.43 40.6a31 31 0 0 0 13.54 9.73c3 .85 5.5 2.1 8.46 2.54 9.24 1.32 20.3 1.7 28.34-1.27 9.06-3.34 14.3-9.84 16.92-21.15 2.54-11-3-25.8-7.6-33.84-3-5.08-8.76-12.5-11.43-17.1a1.5 1.5 0 0 0-.89-.78 1.73 1.73 0 0 0-1.38.51c-1.85 1.52-2.9 10.4-6.8 13.8-3.66 3.2-8.9.76-16.56 1a3.37 3.37 0 0 1-2.09-.54 3.37 3.37 0 0 1-1.2-1.94c-1.6-6-3.43-12.7-5-13.23S141.52 8 132.2 27.57"/><path d="M129.1 23.82c-4.5 10.56-7.93 22.06-5.34 33.58 2.48 11 10.7 19.13 21.12 22.93 18.18 6.67 46.1 6.5 55.68-13.7 9.9-21-1.43-41.43-13.26-58.64-1.95-2.84-3.67-7.47-7.72-7.6-4.22-.13-5.92 3.9-7.1 7.2s-1.9 8.4-6.05 8.77c-2.68.25-5.53-.48-8.22-.6a18.5 18.5 0 0 1-3.36 0c1.14 1 1.3.66.43-1.08l-.9-3.27c-1.63-5.57-5.6-15.85-12.5-9.22C135.7 8.08 132.1 18 128.5 25.5c-2.34 4.9 5 9.07 7.37 4.15 3.33-6.93 6.56-14.35 11.15-20.58.14-.2 1-.87 1-1.1s0 .24 0 .06l-1.53.43Q143 6 144.16 7.7c-.3.65 1.8 5 2.1 6.06.63 2.2.94 4.76 2.1 6.77 2.25 3.9 6.2 3.5 10.07 3.7s8.1 1.27 12 0c3.43-1.08 5.8-3.75 7.37-6.9A47.89 47.89 0 0 0 180 11.8c.24-.7.5-1.4.7-2.13.48-1.65.8-1.07.2-1l-3.27-.38c-1.84-1.14.72 1.5 1.27 2.33a165.24 165.24 0 0 0 2.4 3.48c2 2.8 4 5.54 5.78 8.4a60.79 60.79 0 0 1 7.39 17c3.17 11.85 1.28 27.17-11 33.1-6.48 3.12-14.15 3.2-21.2 2.76-7.3-.45-15-2.05-21.08-6.3-14-9.73-10.4-27.68-4.72-41.1 2.1-5-5.24-9.16-7.37-4.15z"/><path d="M148.35 80.1l-23.6 47.52h83.33l-24.03-47.06" stroke="#fff" class="E F G"/></g></svg>