<svg xmlns="http://www.w3.org/2000/svg" viewBox="0 0 152.03 167.14" xmlns:v="https://vecta.io/nano"><g fill="#fff"><rect x="16.12" y="118.33" width="51.2" height="17.07" rx="8.53"/><path d="M50.92 32.68C44 48.7 39.18 67.9 50.4 83.9a39.09 39.09 0 0 0 17.07 12.28c3.74 1.06 6.94 2.66 10.67 3.2 11.66 1.66 25.6 2.13 35.75-1.6 11.43-4.2 18.05-12.4 21.34-26.68 3.2-13.87-3.73-32.55-9.6-42.68-3.7-6.42-11.05-15.77-14.4-21.57a2 2 0 0 0-1.13-1 2.21 2.21 0 0 0-1.74.65c-2.33 1.9-3.66 13.1-8.56 17.4-4.6 4.05-11.23 1-20.9 1.26a4.18 4.18 0 0 1-2.64-.67 4.32 4.32 0 0 1-1.51-2.45c-2-7.52-4.32-16-6.3-16.7s-6.5 4.74-18.27 29.4"/><path d="M46.27 30.06c-5.45 12.78-9.6 26.56-7.1 40.55s12.44 25.08 25.66 30.2c22.48 8.74 57.83 9.3 70.78-15.15 13.44-25.4.3-52.3-14.56-73.57-2.8-4-5.87-12-11.8-11.46-5.3.5-7 5.32-8.5 9.67S98.28 20.56 93 20.7c-3 .07-6.07-.52-9.08-.72-1.67-.1-3.48.1-5.12-.12 1.93.28.8 1 .66-.9a18.75 18.75 0 0 0-.89-3.26c-1.36-4.82-3-14-8.8-15.5-2.77-.72-5.4.6-7.34 2.5-2.62 2.53-4.57 5.94-6.43 9.06-3.87 6.6-7.22 13.52-10.52 20.42-3 6.17 6.33 11.44 9.3 5.24 4-8.33 8.4-18.6 13.73-25.5.46-.6 1.46-1.33 1.78-2-.42.9-.7 0-.15.2l-.87.4a2.74 2.74 0 0 1-2.58-.39q-2.4-1.45-1.1.3c.2.53.4 1.06.6 1.6.53 1.4 1 2.86 1.38 4.3.82 2.78 1.3 5.9 2.5 8.54 2.48 5.52 7.13 5.5 12.4 5.7s10.8 1.7 16 .1c4.67-1.44 7.74-5.43 9.68-9.72.94-2.1 1.7-4.26 2.43-6.42.35-1 .77-2 1.06-3.1.47-1.7 1.2-.64-.06-.43l-4.12-.47c-.64-.4-.7-1.55-.53-.42a6.14 6.14 0 0 0 1 1.55c.88 1.38 1.8 2.73 2.73 4.08 2 3 4.17 5.92 6.22 8.9a81.76 81.76 0 0 1 8.9 16.36c5 12.84 7.26 26.76.55 39.45C120.2 92 107.86 95.1 95.6 95.28c-14 .2-30.2-2.2-39.92-13.4-11.3-13-6.14-32.46-.1-46.6 2.67-6.25-6.6-11.55-9.3-5.24z"/></g><path d="M75.73 38.16a9.48 9.48 0 0 0-1 4.64 2.52 2.52 0 0 0 4.68 1.2 13.75 13.75 0 0 0 1.16-2.68 3 3 0 0 0-2-3.57 2.75 2.75 0 0 0-3.28 2.11 2.69 2.69 0 0 0 .7 2.49 2.72 2.72 0 0 0 2.6.64 2.54 2.54 0 0 0 1.71-3.13 2.6 2.6 0 0 0-3.13-1.72h-.08l2.47.62.66 1.1v-.08 1.32l-1 1.27-1.9.3h.1L76.2 42l-.2-.3-.36-1.24c.05.4.1-.26.1-.37s.06-.18 0 0l-.15.33-.6 1.08 4.72 1.18V42c0-.23 0-.3 0 0l.06-.34c0-.22.14-.44.18-.67s0-.14 0 .1l.2-.4a2.521 2.521 0 1 0-4.39-2.48zm22.74-.02L98 39.27a2.86 2.86 0 0 0-.27 1.63 2.42 2.42 0 0 0 .71 1.42 2.56 2.56 0 0 0 3.06.36 3.62 3.62 0 0 0 1.54-4 2.52 2.52 0 0 0-2.14-1.78 2.59 2.59 0 0 0-2.48 1.25 5 5 0 0 0-.56 4 2.52 2.52 0 0 0 4.94-.77v-.8l.34-1.23-5-.55v2.4a2.56 2.56 0 0 0 2.59 2.46 2.59 2.59 0 0 0 2.49-2.68v-2.4a2.53 2.53 0 0 0-2.22-2.42 2.57 2.57 0 0 0-2.72 1.88 8.35 8.35 0 0 0-.49 3.36l4.94-.77c-.1-.43 0 .38 0 .1a.49.49 0 0 1 0-.17c0-.2 0-.1 0 .27a1.09 1.09 0 0 0 .08-.31c-.14.34-.17.43-.08.25a1.37 1.37 0 0 1 .13-.2l-4.62-.53a1.58 1.58 0 0 1 .7-1.7l3.5 3.4.46-1.14a2.78 2.78 0 0 0 .22-1.94 2.52 2.52 0 0 0-1.18-1.49c-1.1-.55-2.92-.36-3.44 1zM79.65 52.3c5.5 4.8 12.93 3.83 18.07-.9 2.4-2.2-1.22-5.7-3.6-3.52-3 2.8-7.58 3.74-10.94.8-2.44-2.13-6 1.47-3.52 3.6z" fill="#db2a37"/><path d="M70.55 101.06L40.8 161h105.1l-30.32-59.36" fill="#fff" stroke="#fff" stroke-linecap="round" stroke-linejoin="round" stroke-width="12.27"/><g fill="#db2a37"><path d="M93.26 53.17s0-.07 0 0v.12l.8.93a6.79 6.79 0 0 0 2.21 1.89 2.32 2.32 0 0 0 2.73-.46 2.16 2.16 0 0 0 .35-1.85 4.2 4.2 0 0 0-.93-1.69 5.56 5.56 0 0 0-1.47-1.31 1.17 1.17 0 0 0-.84-.2.5.5 0 0 0-.37.67.26.26 0 0 0 .23-.08"/><path d="M95.7 53.78h0a2.56 2.56 0 0 0-1.84-3.06h0a2.55 2.55 0 0 0-3 3.16 7.3 7.3 0 0 0 2 2.69 7.43 7.43 0 0 0 3 2 4.59 4.59 0 0 0 5.91-2.88c.66-2.34-.65-4.75-2.4-6.25a4.44 4.44 0 0 0-3.64-1.32 3 3 0 0 0-2.51 3.2 2.56 2.56 0 0 0 3.23 2.36l.23-.08c3.06-1.07 1.66-5.93-1.4-4.84l-.23.08 3.23 2.36v-.28l-.33 1.3L98 52l-.9.93.26-.15-1.24.36c-.6 0-.48-.18 0 .2a3.1 3.1 0 0 1 .59.71c-.1-.16.34.46.18.47-.43 0 .72-1 .63-.72s-2.3-2.15-2.47-2.35l.66 1.1v-.12l-3 3.16-1.83-3.06a2.52 2.52 0 1 0 4.89 1.22z"/></g><path d="M49.37 119.67c.28 1.12-.9 2-2 2.56a45.32 45.32 0 0 1-16.78 4.33 90 90 0 0 1-17.43-.65c-4.26-.5-8.77-1.3-11.9-4.16a2.9 2.9 0 0 1-1.2-2.34h-.08l8.74-26c1-3.12 4.7-4.53 8-5.14a43.41 43.41 0 0 1 16.77.21c3.56.75 7.5 2.4 8.5 5.83l4.2 14.38 2.92 10.45c.07.27.22.48-.06.54" fill="#ffe396"/><path d="M41.44 93.46c0 3.13-7.6 5.2-16.37 5.2S9.17 96.12 9.17 93s7.12-5.66 15.9-5.66 16.37 3 16.37 6.12z" fill="#612c16"/><g fill="#fff"><rect x="8.78" y="102.78" width="3.07" height="11.22" rx="1.53" transform="matrix(.967046 .254602 -.254602 .967046 27.94 .95)"/><circle cx="8" cy="116.42" r="1.42"/></g></svg>