<svg xmlns="http://www.w3.org/2000/svg" viewBox="0 0 193.5 178.54" xmlns:v="https://vecta.io/nano"><g fill="#fff"><path d="M24.72 54.72l31 .16 21 23.95 23.3-23.62 65.8-.5 20.67 116.82H7L24.72 54.72z" stroke="#fff" stroke-linejoin="round" stroke-width="14" opacity=".36"/><path d="M111.18 25.06c-3.87-13-16.57-25.44-32.73-25C63.17.38 49 13.8 45.73 24.67c-5.9 19.78 7.27 46.2 31.1 61.84 25.96-14.2 40.24-41.66 34.34-61.45zM78.5 38c-6 0-8-5.84-8-8s1-8 8-8 8 6 8 8c0 3.16-2 8-8 8z"/></g><path d="M100.36 84.1a14.74 14.74 0 0 1 17.06 14.43m-4.92 18.37a30.39 30.39 0 0 1-24.94 25.6M72.14 151c-1.12.34-7.75 2.45-10.83 9.2a16.77 16.77 0 0 0-1.31 9.22" stroke="#fff" stroke-linejoin="round" fill="none" stroke-width="13.13"/></svg>