<svg xmlns="http://www.w3.org/2000/svg" xmlns:xlink="http://www.w3.org/1999/xlink" viewBox="0 0 143 143" xmlns:v="https://vecta.io/nano"><circle cx="71.5" cy="71.5" r="69" fill="#c93c3e" stroke="#c93c3e" stroke-width="5"/><image width="677" height="572" transform="matrix(.1 0 0 .1 38.5 33.5)" xlink:href="../2x/%EC%9E%90%EC%82%B0%2028@2x.png"/><path d="M46.2 97.32a1.76 1.76 0 0 1 1.25.34 1.67 1.67 0 0 1 .34 1.21v7.68a1.7 1.7 0 0 1-.34 1.22 1.82 1.82 0 0 1-1.25.33h-5.15a1.79 1.79 0 0 1-1.24-.33 1.69 1.69 0 0 1-.35-1.22v-7.68a1.66 1.66 0 0 1 .35-1.21 1.74 1.74 0 0 1 1.24-.34zm-.78 2.45a.38.38 0 0 0-.44-.43h-2.7a.38.38 0 0 0-.43.43v5.88a.38.38 0 0 0 .43.43H45a.38.38 0 0 0 .44-.43zm8.8 1.82a.75.75 0 0 1 .66.3 1.23 1.23 0 0 1 .21.73 1.29 1.29 0 0 1-.21.74.76.76 0 0 1-.66.31h-1.76v7.75a.87.87 0 0 1-.36.77 1.47 1.47 0 0 1-.83.24 1.5 1.5 0 0 1-.84-.24.87.87 0 0 1-.36-.77V97.08a.86.86 0 0 1 .36-.77 1.51 1.51 0 0 1 .84-.25 1.48 1.48 0 0 1 .83.25.86.86 0 0 1 .36.77v4.5zm2.33 1.1a6.83 6.83 0 0 1 1.12-4.24 4.69 4.69 0 0 1 6.78 0 8.59 8.59 0 0 1 0 8.48 4.69 4.69 0 0 1-6.78 0 6.81 6.81 0 0 1-1.12-4.24zm6.72 0a5.89 5.89 0 0 0-.49-2.7 2.08 2.08 0 0 0-3.44 0 7.68 7.68 0 0 0 0 5.4 2.07 2.07 0 0 0 3.44 0 5.83 5.83 0 0 0 .49-2.7zm7.06 8.7a.86.86 0 0 1-.37.77 1.49 1.49 0 0 1-.85.24 1.47 1.47 0 0 1-.83-.24.86.86 0 0 1-.37-.77V97.08a.85.85 0 0 1 .37-.77 1.48 1.48 0 0 1 .83-.25 1.49 1.49 0 0 1 .85.25.85.85 0 0 1 .37.77zm3.54-3.4a.72.72 0 0 1-.64-.3 1.19 1.19 0 0 1-.23-.7 1.21 1.21 0 0 1 .2-.71.72.72 0 0 1 .64-.3H88a.72.72 0 0 1 .64.3 1.21 1.21 0 0 1 .21.71 1.19 1.19 0 0 1-.21.71.72.72 0 0 1-.64.3h-5.86v4.74a.86.86 0 0 1-.36.77 1.47 1.47 0 0 1-.83.24 1.5 1.5 0 0 1-.84-.24.86.86 0 0 1-.36-.77V108zm1.55-3.65a.7.7 0 0 1-.61-.29 1.22 1.22 0 0 1-.19-.7 1.2 1.2 0 0 1 .19-.7.68.68 0 0 1 .61-.29H77V98.9h-1.5a.66.66 0 0 1-.61-.29 1.32 1.32 0 0 1 0-1.4.66.66 0 0 1 .61-.29h10.9a.66.66 0 0 1 .61.29 1.32 1.32 0 0 1 0 1.4.66.66 0 0 1-.61.29h-1.53v3.47h1.6a.68.68 0 0 1 .61.29 1.2 1.2 0 0 1 .19.7 1.22 1.22 0 0 1-.19.7.7.7 0 0 1-.61.29zm3.92-2h3.22V98.9h-3.22zM93.87 99a.38.38 0 0 0-.43.43v3.23a.38.38 0 0 0 .43.43q1.74 0 3.2-.1c1 0 1.92-.15 2.83-.27a.77.77 0 0 1 .69.2 1 1 0 0 1 .29.66 1.55 1.55 0 0 1-.12.76.63.63 0 0 1-.56.38c-.38 0-.8.1-1.3.14l-1.62.13-2.06.08q-1.15 0-2.6 0a1.78 1.78 0 0 1-1.25-.34 1.68 1.68 0 0 1-.34-1.22v-5a1.68 1.68 0 0 1 .34-1.22 1.78 1.78 0 0 1 1.25-.3h5.88a.72.72 0 0 1 .64.3 1.28 1.28 0 0 1 .2.71 1.24 1.24 0 0 1-.2.71.72.72 0 0 1-.64.3zm-.64 11.13a3.24 3.24 0 0 1 .38-1.6 3.13 3.13 0 0 1 1.12-1.14 5.49 5.49 0 0 1 1.77-.67 11.07 11.07 0 0 1 2.35-.23 11.21 11.21 0 0 1 2.35.23 5.68 5.68 0 0 1 1.77.67 3.18 3.18 0 0 1 1.11 1.14 3.13 3.13 0 0 1 .38 1.6 3 3 0 0 1-1.49 2.73 9.88 9.88 0 0 1-8.24 0 3 3 0 0 1-1.5-2.73zm8.86 0a1.43 1.43 0 0 0-.74-1.26 5 5 0 0 0-2.5-.47 4.91 4.91 0 0 0-2.5.47 1.43 1.43 0 0 0 0 2.51 4.91 4.91 0 0 0 2.5.47 5 5 0 0 0 2.5-.47 1.43 1.43 0 0 0 .74-1.25zm2.32-4.76a.85.85 0 0 1-.37.77 1.56 1.56 0 0 1-1.66 0 .85.85 0 0 1-.37-.77v-8.3a.85.85 0 0 1 .37-.77 1.5 1.5 0 0 1 1.66 0 .85.85 0 0 1 .37.77z" fill="#fff"/></svg>