<svg xmlns="http://www.w3.org/2000/svg" viewBox="0 0 668.57 687.87" xmlns:v="https://vecta.io/nano"><g fill="#fff"><path d="M172.68 483.38c-53.07 27.34-99.36 66.65-134 113.84-11.1 15.08-21.08 31.08-27.5 48.47-1.1 3-2 6.46-.32 9.16s5.78 3.52 9.25 3.9l107.88 12c2.9.32 6.16.54 8.37-1.28 1.7-1.4 2.27-3.65 2.76-5.75l37.74-163.06c1.12-4.88 1.7-11.1-2.73-13.74"/><path d="M167.64 474.74a402.3 402.3 0 0 0-88.94 62.6 379.25 379.25 0 0 0-37.09 39.79c-12.07 15-23.55 30.7-32.22 47.9-4.14 8.2-10.32 18.76-9.27 28.23 1.3 11.78 12 14.58 22 15.7l96.1 10.72c9.6 1.07 21.5 3.67 27.7-6.08 2.5-3.9 3.2-8.6 4.23-13l11.02-47.53q8.2-35.4 16.4-70.85l8.1-34.94c2.54-11 3.7-21.57-6.43-28.92-4.37-3.17-11.14-.75-13.68 3.6-2.95 5.05-.8 10.5 3.6 13.68-1.4-1-.9-1.48-1.43-.7-.35.52-.26 2.32-.44 3.14-1 4.87-2.24 9.7-3.37 14.56l-32.12 138.8c-.28 1.23-3.64 11.4-2.94 12.24-1.6-1.9 6.06-2.25 0-2.77-2.54-.2-5.07-.55-7.6-.83L24 649.2c-1.54-.17-3.07-.38-4.57-.6l-.66-.14c-1.45-.53-1.68-.55-.68 0a1.7 1.7 0 0 1 1.17 1.68c.36 1.62.63 1.8.8.56.94-.94 1.47-4.28 2-5.66.68-1.7 1.42-3.36 2.2-5q2.84-6.12 6.16-12c15.7-27.93 37.3-52.9 60.56-74.8A383.4 383.4 0 0 1 177.73 492c11.43-5.92 1.33-23.18-10.1-17.27zM220.62 367h92v315h-92z"/><path d="M477.57 59.2L399.4 137c-2.9 2.88-5.9 5.84-9.74 7.23-3.55 1.3-7.44 1.1-11.2.92a1768 1768 0 0 0-193.71.85 23.75 23.75 0 0 1-6.79-.24c-5.12-1.2-8.8-5.56-12.07-9.68-18.83-23.65-34.94-53-53.77-76.6h-3c-48.7 50.44-74.88 127.17-80.46 197.06-2.16 27-2.08 54.63 5 80.8 13.4 49.28 51.57 89.84 97.58 112s99 27.1 149.65 20.34c47.94-6.4 94.92-23.3 133.77-52.1s69.16-69.95 81.54-116.7c4.63-17.48 6.76-35.53 7.85-53.58 3.6-60.14-3.92-130.65-23-187.8"/><path d="M474 55.67l-79.25 78.93c-2.35 2.27-4.73 4.48-8 5.33s-7 .33-10.3.17q-22.67-1.1-45.44-1.68-45.46-1.06-91 .2-22.73.65-45.44 1.86c-6 .32-14.2 2.43-19.32-1.5-5-3.8-8.8-10-12.44-15-8.05-11-15.47-22.5-23-33.9-7.3-11-14.43-22.74-23.14-32.73-8.06-9.25-17.63 5.5-22.43 11.3a262.81 262.81 0 0 0-20.73 28.9C47.76 139 32.5 187 26 235.18c-3.6 26.6-5.17 53.95-1.62 80.65a166.19 166.19 0 0 0 24.41 67.56c25.72 40.42 66.73 69 112.22 82.9 51.1 15.67 107.12 14.16 158.6 1 49.63-12.68 96.6-37.77 131.46-75.72a219.66 219.66 0 0 0 39.61-60c11-25 16-51.4 18-78.5a531.57 531.57 0 0 0-12.5-158.37q-4.3-18.5-10.24-36.55c-2-6.08-11.67-3.48-9.64 2.66 11.84 35.83 18.63 73.28 21.74 110.85 3.18 38.4 3.8 78.66-4 116.57-14.65 71.55-69.2 127.38-135.14 155.35-68.72 29.15-154 34.62-222.72 2.58C106.45 432.3 79.87 411 61.13 384c-21.6-31.2-29.38-67.08-28.65-104.67C33.8 210.14 53.86 137.36 96.34 82a225.76 225.76 0 0 1 16.32-19l-3.54 1.46h3L108.58 63c17.7 22.36 31.6 47.4 48.77 70.15 3.35 4.43 6.65 9.24 10.9 12.86 4.9 4.2 10.23 5.27 16.5 5l47.42-2.17q46.44-1.5 92.93-.57 23.73.48 47.44 1.6c6.07.28 12.57 1.2 18.46-.8 6.58-2.23 11.36-7.93 16.13-12.68l74-73.66c4.56-4.54-2.5-11.62-7.08-7.07z"/></g><path d="M241.92 233.07c-4 .3-6.78.36-8.56 4.32a32.13 32.13 0 0 0-2.71 10.36c-.55 6.05 1.8 14.8 9.8 12.7 5.63-1.48 10.1-8.66 11.17-14 1.25-6.43-3.1-13.36-10-13.2a5.14 5.14 0 0 0-4.82 3.67 24.45 24.45 0 0 0-.62 12.36 5 5 0 0 0 6.15 3.49c9.15-3.3 9.3-16.94-.2-20-6.14-2-8.78 7.7-2.66 9.64-.84-.27 0-.74-.15.28s-.3.63.34.4l6.15 3.5a13.94 13.94 0 0 1 .62-7l-4.82 3.67c2 0-3.2 6.8-3.25 7.2q-1.6 1.23 2.25 1.42v-1.16c.2-1 0-2.24.15-3.3a21.44 21.44 0 0 1 2-6.49l-4.3 2.48 3.5-.27c6.37-.5 6.43-10.5 0-10zm38.43 1.85c-5.3 7.23-2.6 17.66 4.7 22.33a5.08 5.08 0 0 0 6.06-.78c3.44-3.33 7.06-7.4 7.22-12.47a11.44 11.44 0 0 0-5.82-10.28 8.93 8.93 0 0 0-11.85 3.34c-2 3.4-2.22 8.05-1.2 11.8s4.06 7.86 8.48 7.83c4.6 0 7.5-3.72 8.36-7.9 1.57-7.73-.7-17.23-9.65-18.3-2.7-.33-5 2.53-5 5 0 3 2.33 4.67 5 5-1.2-.15-.58-.3-.27.86a12.08 12.08 0 0 1 .35 3.23c0 .38-.32 2.76-.3 2.8.25.24 3.08-.27 3.05-.2s-.58-1.84-.5-1.38a21.2 21.2 0 0 1-.05-2.52c0-.38.92-1.86-.36-.92-2.64 2-.18-.58-.55.46 0 .14.4.6.3.93a8 8 0 0 1-.75 1.73 20.35 20.35 0 0 1-3.57 3.94l6.06-.8c-3.1-2-3.1-5.93-1.1-8.65 3.8-5.2-4.87-10.2-8.64-5zm-75.67-11.52a74.4 74.4 0 0 0 41.88-13.7c5.2-3.7.2-12.38-5-8.63a65 65 0 0 1-36.84 12.33c-6.42.13-6.44 10.13 0 10zm62.38-16.6a58.67 58.67 0 0 0 47.07 11.89c6.32-1.1 3.64-10.74-2.66-9.64a47.73 47.73 0 0 1-37.34-9.32c-5-3.93-12.13 3.1-7.07 7.07zm110.67 59.75a127.65 127.65 0 0 1 31.13-11.18c6.28-1.4 3.62-11-2.66-9.65a138.1 138.1 0 0 0-33.52 12.2c-5.72 2.95-.66 11.58 5.05 8.63zm1.47 19.6l35.62 2.14c6.42.4 6.4-9.6 0-10l-35.62-2.14c-6.43-.4-6.4 9.6 0 10zM149.4 264q-14.75-6-29.9-10.73c-6.15-1.94-8.8 7.7-2.66 9.64q15.17 4.77 29.9 10.73c6 2.42 8.56-7.25 2.66-9.64zm2.7 19.15a296.84 296.84 0 0 0-34.56 3.51c-6.33 1-3.64 10.65 2.66 9.64a273 273 0 0 1 31.9-3.15c6.42-.27 6.45-10.27 0-10zm77.76 9.65c11.26-7.36 25.26-8.22 38.35-8.2a114.74 114.74 0 0 1 41.05 7.24c6 2.3 8.62-7.37 2.65-9.64-14.5-5.53-30-7.77-45.5-7.6-14.25.16-29.37 1.58-41.58 9.56-5.37 3.5-.36 12.17 5 8.64z" fill="#db2a37"/><path d="M385 138.08c1.2 4.76-3.86 8.63-8.33 10.86-22 10.95-46.5 16.5-71.13 18.37s-49.4.16-73.9-2.78c-18-2.17-37.17-5.54-50.47-17.63-2.9-2.63-5.6-6.1-5.12-9.92l-.32.12 37.06-110.22c4.33-13.24 19.94-19.2 33.95-21.8a184.41 184.41 0 0 1 71.08.91c15.1 3.18 31.8 10.22 36.05 24.7q8.92 30.5 17.86 61L384.08 136c.3 1.16.94 2.05-.25 2.3" fill="#fff1ca"/><path d="M351.62 26c0 13.25-32.22 22-69.5 22s-67.5-10.75-67.5-24 30.22-24 67.5-24 69.5 12.75 69.5 26z" fill="#612c16"/><g fill="#fff"><rect x="214.95" y="57.17" width="13" height="47.55" rx="6.5" transform="matrix(.967046 .254602 -.254602 .967046 27.91 -53.71)"/><circle cx="211.62" cy="115" r="6"/><path d="M589.46 294.17c.37-14.68-7-28.32-14.05-41.16-9.72-17.57-20.14-35.88-37.14-46.56-13.38-8.4-29.46-11.14-45.1-13.33-12.2-1.7-25.95-2.8-35.54 4.94-5.47 4.42-8.25 13.82-2.68 18.12 2 1.57 4.7 2 7.22 2.46l12.46 2.06c4 .66 8.12 1.4 11.32 3.84 6 4.58 6.47 13.77 3.35 20.6s-9 12-14.4 17.15-10.8 11.07-12.45 18.4c-1.95 8.67 1.87 17.88 8 24.33s14.28 10.55 22.47 14c6.22 2.6 12.75 5 19.5 4.85 5.33-.08 10.5-1.7 15.6-3.3 21.55-6.75 43.55-13.73 61.7-27.16"/></g><path d="M594.46 294.17c.08-17.54-8.73-33-17.05-47.86-7.76-13.85-16.28-28-28.62-38.3-12.9-10.77-28.7-15.6-45-18.32-14.6-2.42-31.92-5.9-45.5 1.93-10.7 6.16-17.54 24.83-2.53 30.55 7.9 3 17.2 1.7 25 5.08 7.36 3.2 6.23 12.47 2.8 18.2-8.16 13.67-25.37 20.6-26.5 38.33-1.05 16.6 12.15 29.18 25.8 36.1 8.56 4.33 18.1 8.5 27.8 9s19.56-3.63 28.7-6.6c18.56-6 37.05-13 52.94-24.52 5.15-3.75.17-12.43-5.05-8.63-12.36 9-26.24 15.16-40.6 20.18-7.42 2.6-14.92 5-22.45 7.27-8.3 2.5-15.54 2.84-23.84 0-13-4.5-29.68-12.25-32.9-27.17-3.32-15.38 14-24.54 22-35 7.06-9.14 10.36-23.52 1.1-32.56-4.83-4.72-11.75-5.52-18.08-6.57-5-.83-17.3-.3-15.12-8 3.82-13.47 25.24-10.63 35.4-9.22 14.8 2.06 30.2 4.64 43.07 12.7 13.24 8.32 22.16 21.76 29.86 35 8.55 14.74 18.93 30.76 18.85 48.37 0 6.44 10 6.44 10 0z" fill="#e6e6e6"/><g fill="#1b3b95"><path d="M545.52 361.8L530.2 332a8.53 8.53 0 0 1-1.21-4c.06-2 1.45-3.6 2.8-5a135.91 135.91 0 0 1 58.31-36.26 5.33 5.33 0 0 1 7.14 2.27 110.37 110.37 0 0 1 16.11 26.35 135.65 135.65 0 0 0-66.55 45.12"/><path d="M549.84 359.26l-13.05-25.44c-1.64-3.2-3.58-5-.9-7.9a123 123 0 0 1 25.25-20.49 119.2 119.2 0 0 1 28.71-13.39c1.7-.5 2.06-.85 3.35-.08 1.13.66 2.1 2.55 2.9 3.6l4.88 7.1a116.23 116.23 0 0 1 8 15.21l3-7.35a142 142 0 0 0-68.76 46.4c-4 5 3 12.1 7.07 7.08a132.76 132.76 0 0 1 64.35-43.83c3.35-1 4.3-4.37 3-7.35a114.7 114.7 0 0 0-10.9-19.51c-3.18-4.55-6.94-11.26-13-12-6.3-.8-14.53 3.83-20.14 6.3a138.27 138.27 0 0 0-18.25 9.65 146.43 146.43 0 0 0-16.33 12c-4.74 4-10.8 8.66-13.8 14.2-3.37 6.24 1.45 12.6 4.26 18.06l11.7 22.8c2.94 5.73 11.57.68 8.63-5.05z"/></g><g fill="#fff"><path d="M538 348a106.41 106.41 0 0 1 33.89-29.45 105.16 105.16 0 0 1 20-8.55 107.32 107.32 0 0 1 10.45-2.66c3-.6 6.9-.4 9.08-2.8a5.16 5.16 0 0 0 0-7.07l-.25-.3a5 5 0 0 0-6.06-.78l-.26.17c-5.37 3.5-.36 12.17 5 8.63l.25-.16-6.06-.8.26.3v-7.07c1.92-.88 1.9-1.08-.1-.6l-3 .52q-3 .57-6 1.3-5.24 1.3-10.33 3.1A116.73 116.73 0 0 0 529.31 343c-3.84 5.17 4.84 10.16 8.64 5.05zm-90.5 226.86c.45-.32.63.8.07.85s.6 9.24.05 9.3c-11 1-43.4 9.86-46 1-5.67-19.35-16.33-76.65-22-96l47 7c41.95 7 82.83 5.33 121-13.17 14.84-7.2-16 10.17-7-.83 15.13-18.5 23.5-78.1 13.3-99.8a39.35 39.35 0 0 1-4.07-13.65c-.44-6 1-2.2 3.76-7.56 4.46-8.63 20.48-17.22 29-22 10-5.58 29.53-16.77 41-16 21.28 1.44 26.66 31.52 32 52 6 23 1.28 71.2-2 92-6 38-13.4 40.56-36 71-8.23 11.08-32.93 37.4-46 42-71 25-100 24-167 12"/><path d="M444.85 584.5l.33.06-7.34-9.64.06.47 2.93-7.07c-5.12 4.84-2.38 10.62-3.12 16.53l1.37-5.05-.08.2 8.63-5c-8.78.9-19.06 3.33-26.73 4.27-2.36.3-4.74.52-7.12.6h-3c-1 0-3.24-.47-1.2 0a15.06 15.06 0 0 1-2.1-.56c.28-1.1 3.46 3.3 3.48 3.3.9 1 0-.2-.2-1l-.73-2.72c-5.37-20.52-9.26-41.43-13.77-62.14-2.14-9.83-4.2-19.73-7-29.4L377 499.64c43.9 6.54 88.25 16 132.56 7.36a166.51 166.51 0 0 0 29-8.41c4.77-1.87 9.45-3.93 14.08-6.12a23.84 23.84 0 0 0 2.8-1.32c.63-.4-2.5.7-1.1.52l-9.73-2.57V475c2.06-2.45 1.93-1.25.35-.55-1.07.46-2.18 1-3.2 1.56-1.73.92 2-.64.3-.12-.7.2-1.38.5-2 .74a7.24 7.24 0 0 0-1.37.36c1-.7 5.8.45 7.48 2.35l2.57 4.4c.56 1.35.06 3-.27 4.28-.8 3.05-.58 2.52-.3 1.63.4-1.34-1.05 1.32.07-.17a66 66 0 0 0 4.37-6.25 85 85 0 0 0 5.84-12.85 149.38 149.38 0 0 0 7.57-30.86c3-19.74 5-42.26-3.32-61-1.27-2.88-1.64-6.16-2.86-9-.7-1.6 1.73-4.33-2 1.4-4.17 6.48-2.42 3-1.35 2.53 1.83-.76 3.5-3.1 4.56-4.64a35.92 35.92 0 0 1 9.94-10.25c9-6.24 19-11.54 28.7-16.55a92.92 92.92 0 0 1 16-6.83 27.61 27.61 0 0 1 5.72-1.24 11.07 11.07 0 0 1 4.55.58c3 1.12 5.3 3.57 7.3 6.65a55.4 55.4 0 0 1 6 13 208 208 0 0 1 7.74 29.54c1.6 9.13 1.6 21.47 1.32 31.9-.65 23-2.3 44.34-7.53 65.84-2.3 9.38-4.48 15.13-9.68 23.08-5.7 8.73-11.82 15.73-18.3 24.24q-1.7 2.24-3.38 4.5c-.32.43-.64.87-1 1.3.1-.12 1-1.28.26-.35a128.52 128.52 0 0 1-4.18 5q-5.28 6.12-11 11.86c-7.1 7.2-14.3 14.44-22.82 19.25-.36.2-2.57 1.34-1.57.88s-.1 0-.3.1c-.92.35-1.87.65-2.8 1q-6.25 2.17-12.54 4.22c-6.75 2.2-13.55 4.27-20.4 6.14a236 236 0 0 1-35.47 7.23c-23 2.6-46 .66-68.73-2.9l-21.74-3.68c-5.3-1-10.78 1.44-12.3 7-1.33 4.84 1.64 11.35 7 12.3 28.72 5.13 58 10.1 87.26 8.07A243.71 243.71 0 0 0 531 604c8-2 15.86-4.26 23.7-6.73 8.08-2.55 16.6-4.85 24.25-8.53 10.77-5.17 20.1-14.55 28.4-23 8.7-8.8 16.24-18.27 23.76-28.07 6.8-8.85 14.32-17.4 19.9-27.1 6-10.56 9.2-22.34 11.35-34.23 4.62-25.76 7.1-52.68 6-78.84-.52-12.54-3-24.34-6.16-36.43-3.23-12.37-7.14-25.1-15.34-35.14-19.7-24.15-50.73-4.93-71.7 6.82a150 150 0 0 0-17.15 10.7 59.85 59.85 0 0 0-8.09 6.89 39.8 39.8 0 0 0-3.83 4.77c-.3.46-.58.93-.86 1.4-1.84 3 .32 1.52.68.12-.15.56-2.9 2.26-3.6 3.18a12.38 12.38 0 0 0-2.17 4.54c-1.17 4.7 0 10.37 1.45 14.87a64.27 64.27 0 0 0 2.58 6.59l1.1 2.47c-.84-2-.23-.6-.08-.18a48.6 48.6 0 0 1 1.83 6.47 71.32 71.32 0 0 1 1.35 14.61 160.34 160.34 0 0 1-.79 18.07 154.49 154.49 0 0 1-7.54 35.21 49.4 49.4 0 0 1-5.7 12.19l-1.1 1.7c.7-.97 0 0-.16.2-.43.57-1.43 1.7-2 2.55a13.39 13.39 0 0 0-2.19 7c.08 7.87 7.5 11.64 14.4 10.27a40.61 40.61 0 0 0 9-3.34c2.07-1 4.9-2.1 6.4-3.9 3.6-4.3 3.9-9.86 0-14.15-4.58-5-10.5-2.48-15.45-.15a163.41 163.41 0 0 1-23.53 9.2 177 177 0 0 1-51.53 6.84c-21.64-.16-43-4.05-64.33-7.22l-21.54-3.2c-7.18-1.07-14.63 4.27-12.3 12.3 6.88 23.8 10.95 48.48 16.32 72.65l3.9 16.75c1.2 4.74 2.13 9.7 5.92 13.13 9.2 8.33 26 4.16 36.76 2.33l9.86-1.75 3.73-.63c2-.32.12 0-.24 0a31.56 31.56 0 0 0 4-.51c9.8-2.7 6.3-11.75 7.2-18.8l-1.37 5c-2.15 3.26.28 0 .93-1.65a8.91 8.91 0 0 0 .8-4.32c-.5-4.15-2.72-8.74-7.34-9.64l-.34-.07c-5.3-1-10.8 1.5-12.3 7-1.35 4.9 1.66 11.26 7 12.3z"/></g><g fill="#1b3b95"><path d="M312.37 478.06c10.5-7 24.17-8.3 36.3-4.93s22.77 11.15 30.92 20.76c15.6 18.4 22.2 42.63 27 66.27a634.46 634.46 0 0 1 12.64 116.93l-124.54 5.77c-3.32.16-8.15-1.93-6.5-4.8l-.45-.4q-.88-40.5 0-81c.94-41.57 3.66-84.47 22.22-121.68"/><path d="M314.9 482.38c13.1-8.3 29.5-7.5 42.87-.2 13.73 7.5 23.53 20.2 30.26 34.08s10.48 29.27 13.6 44.4q5.56 27.17 8.7 54.77 3.45 30.7 3.92 61.64l5-5-121.58 5.6a25 25 0 0 0-3.47.12 2.43 2.43 0 0 1-1.1-.17q-1.62-.72-.06 1.72a4.9 4.9 0 0 0-1.28-4.86l-.45-.42 1.46 3.54c-.76-35.2-.95-70.57.9-105.74 1.7-32.33 6.23-65.12 20.67-94.47 2.83-5.75-5.8-10.82-8.64-5-15.38 31.27-20.32 65.92-22.08 100.4-.94 18.46-1.17 37-1.26 55.44q-.1 14.82.08 29.65.1 6.93.2 13.84c.07 3.36-.67 7.37 2 9.88l-1.3-4.86c-1.37 3.9.7 7.53 4.17 9.45 4.56 2.5 10.1 1.53 15 1.3l116.64-5.4a5.09 5.09 0 0 0 5-5A644 644 0 0 0 411 557.23c-6.58-31.85-18.17-67.73-49-84-16.3-8.63-36.37-9.5-52.27.56-5.42 3.43-.4 12.1 5.05 8.63zm-87.78-7.88c-10.5-7-30.86-8.38-43-5s-21.85 14.4-30 24c-15.6 18.4-18.5 42.77-23.3 66.4a634.54 634.54 0 0 0-12.63 116.93l124.54 5.78c3.3.15 8.15-1.93 6.48-4.8l.45-.4q.9-40.53 0-81c-.94-41.58-3.66-84.48-22.22-121.68"/><path d="M229.64 470.18c-12.4-7.82-29.85-9-43.95-6.18-16.45 3.3-29.46 17.8-38.9 30.82-10.43 14.37-14.6 32.1-17.95 49.2-3.9 19.83-7.7 39.63-10.33 59.66a643.68 643.68 0 0 0-5.32 73.14 5.08 5.08 0 0 0 5 5l116.63 5.4c4.94.23 10.5 1.2 15.05-1.3 3.48-1.9 5.54-5.54 4.17-9.45l-1.3 4.87c2.7-2.5 2-6.52 2-9.88q.14-6.93.2-13.84.17-14.83.1-29.66c-.1-18.47-.33-37-1.27-55.43-1.75-34.47-6.7-69.13-22.08-100.4-2.84-5.77-11.47-.7-8.63 5.05 14.43 29.34 19 62.14 20.67 94.46 1.84 35.18 1.65 70.54.9 105.75l1.47-3.54-.45.4a4.92 4.92 0 0 0-1.29 4.87c-.7-2 1.57-1.17-.64-1.57a23.08 23.08 0 0 0-3-.05l-122.56-5.66 5 5a644 644 0 0 1 12.65-116.44c3.18-15.9 5.42-32.5 12.1-47.42a79.32 79.32 0 0 1 13.28-20.06c5.4-6.15 11.2-12.34 18.47-16.25 12.6-6.77 33-5.42 45 2.13 5.46 3.44 10.48-5.2 5-8.64z"/></g><path d="M375.87 547.2c-11.42-14.07-32.17-17.63-47.73-8.5-16.4 9.64-22.36 30.37-18.47 48.24a42.76 42.76 0 0 0 36.41 33.13c17.3 2 33.07-8.72 39.18-24.65 1.94-5-2.14-11-7-12.3-5.64-1.55-10.36 1.92-12.3 7-2.76 7.2-11.36 11.17-18.7 10.08-9.54-1.43-16.42-9.45-18.33-18.55-1.86-8.87.7-20.1 8.63-25.26 8.47-5.48 18.12-2.44 24.13 5 3.4 4.2 10.6 3.54 14.15 0 4.15-4.15 3.4-9.94 0-14.15z" fill="#fff"/></svg>