<svg xmlns="http://www.w3.org/2000/svg" viewBox="0 0 543.14 687.87"><defs><style>.cls-1{fill:#fff;}.cls-2{fill:#db2a37;}.cls-3{fill:#fff1ca;}.cls-4{fill:#612c16;}.cls-5{fill:#1b3b95;}</style></defs><g id="레이어_2" data-name="레이어 2"><g id="레이어_1-2" data-name="레이어 1"><path class="cls-1" d="M370.77,483.86a386.17,386.17,0,0,1,134,113.84c11.08,15.08,21.05,31.08,27.47,48.47,1.1,3,2,6.46.31,9.16s-5.77,3.52-9.25,3.9l-107.88,12c-2.89.32-6.16.54-8.36-1.28-1.7-1.41-2.28-3.66-2.76-5.75L366.59,501.17c-1.13-4.88-1.71-11.12,2.73-13.74"/><path class="cls-1" d="M365.73,492.49C421.48,521.36,471.67,564,506,616.88a194.05,194.05,0,0,1,12.8,22.77c1.5,3.17,2.43,7.89,4.38,10.71,1.08,1.56-.76,1.95,1,.22l.57-1.35c1.42-.68,1.6-.84.55-.48a47.93,47.93,0,0,0-4.89.81l-55.9,6.23L436.05,659l-12.75,1.43c-2.29.25-4.58.52-6.87.76s-5.15-.71-3,1.67c2.43,2.67.41-1.71.06-3.19-.53-2.27-1-4.53-1.57-6.8l-3.37-14.56-6.51-28.14q-7.2-31.07-14.38-62.12L380.5,517l-3.59-15.53c-.37-1.59-.49-4.1-1.14-5.42s.85-1.57-1.4.06c4.36-3.16,6.5-8.7,3.58-13.68-2.52-4.31-9.28-6.78-13.68-3.59-8.38,6.07-9.4,14.77-7.46,24.41,2.14,10.61,4.88,21.14,7.32,31.68L378.51,597q7.41,32,14.83,64.06c1,4.21,1.65,8.7,3.88,12.48,2.94,5,8.17,7.51,13.79,7.88,4.69.31,9.61-.73,14.25-1.25l16.67-1.86,63.75-7.11c5.23-.58,10.46-1.15,15.69-1.75,4.59-.52,9.3-.86,13.45-3.1,10.7-5.79,9.38-17.39,5.47-27-14.11-34.74-39.1-65.42-65.42-91.75a401,401,0,0,0-99.05-72.36c-11.41-5.91-21.54,11.34-10.09,17.27Z"/><path class="cls-1" d="M172.68,483.38c-53.07,27.34-99.36,66.65-134,113.84C27.58,612.3,17.6,628.3,11.19,645.69c-1.1,3-2,6.46-.32,9.16s5.78,3.52,9.25,3.9l107.88,12c2.89.32,6.16.54,8.37-1.28,1.7-1.41,2.27-3.65,2.76-5.75l37.74-163.06c1.12-4.88,1.7-11.11-2.73-13.74"/><path class="cls-1" d="M167.64,474.74a402.3,402.3,0,0,0-88.94,62.6,379.25,379.25,0,0,0-37.09,39.79c-12.07,15-23.55,30.7-32.22,47.91C5.25,633.23-.93,643.8.12,653.27c1.31,11.78,12,14.58,22,15.7,21.25,2.41,42.5,4.74,63.75,7.11l32.36,3.61c9.61,1.07,21.5,3.67,27.7-6.08,2.49-3.89,3.2-8.61,4.23-13l3.59-15.53,7.42-32q8.19-35.41,16.39-70.85l8.09-34.94c2.54-11,3.71-21.57-6.43-28.92-4.37-3.17-11.14-.75-13.68,3.59-2.95,5.05-.8,10.5,3.59,13.68-1.4-1-.9-1.48-1.43-.69-.35.52-.26,2.32-.44,3.14-1,4.87-2.24,9.71-3.37,14.56l-6.51,28.15-12.8,55.32-12.81,55.32c-.28,1.23-3.64,11.41-2.94,12.24-1.61-1.89,6.06-2.25,0-2.77-2.54-.21-5.07-.55-7.6-.83L93.68,657l-56.89-6.35L24,649.19c-1.54-.17-3.07-.38-4.57-.59l-.66-.14c-1.45-.53-1.68-.55-.68,0a1.7,1.7,0,0,1,1.17,1.68c.36,1.62.63,1.81.79.56.94-.94,1.47-4.28,2-5.66.68-1.69,1.42-3.36,2.19-5q2.84-6.12,6.16-12c15.7-27.93,37.31-52.91,60.56-74.81A383.4,383.4,0,0,1,177.73,492c11.43-5.92,1.33-23.18-10.09-17.27Z"/><rect class="cls-1" x="220.62" y="367" width="92" height="315"/><path class="cls-1" d="M477.57,59.21,399.41,137c-2.89,2.88-5.91,5.84-9.74,7.23-3.55,1.29-7.44,1.11-11.21.92a1768,1768,0,0,0-193.71.85,23.75,23.75,0,0,1-6.79-.24c-5.12-1.19-8.79-5.56-12.07-9.68-18.83-23.65-34.94-53-53.77-76.61h-3c-48.7,50.44-74.88,127.17-80.46,197.06-2.16,27-2.08,54.63,5,80.8,13.39,49.28,51.57,89.84,97.58,112s99,27.11,149.65,20.34c47.94-6.41,94.92-23.3,133.77-52.11s69.16-69.95,81.54-116.7c4.63-17.48,6.76-35.53,7.85-53.58,3.61-60.14-3.92-130.65-23-187.81"/><path class="cls-1" d="M474,55.67l-64.2,63.93c-5,5-10,10.06-15.05,15-2.35,2.27-4.73,4.48-8,5.33s-7,.33-10.31.17Q353.77,139,331,138.42q-45.46-1.06-91,.2-22.73.65-45.44,1.86c-6,.32-14.19,2.43-19.32-1.5-5-3.8-8.79-10-12.44-15-8.05-11-15.47-22.51-23-33.9-7.3-11-14.43-22.74-23.14-32.73-8.06-9.25-17.63,5.49-22.43,11.29A262.81,262.81,0,0,0,73.5,97.54C47.76,139,32.51,187,26,235.18c-3.6,26.61-5.17,53.95-1.62,80.65a166.19,166.19,0,0,0,24.41,67.56c25.72,40.42,66.73,69,112.22,82.91,51.11,15.67,107.12,14.16,158.6,1,49.63-12.68,96.61-37.77,131.46-75.72a219.66,219.66,0,0,0,39.61-60c11-25,16-51.41,18-78.49A531.57,531.57,0,0,0,496.18,94.72q-4.31-18.5-10.24-36.55c-2-6.08-11.67-3.48-9.64,2.66,11.84,35.83,18.63,73.28,21.74,110.85,3.18,38.41,3.79,78.66-4,116.57C479.39,359.8,424.85,415.63,358.9,443.6c-68.72,29.15-154,34.62-222.72,2.58C106.45,432.31,79.87,411,61.13,384c-21.61-31.19-29.38-67.08-28.65-104.67C33.81,210.14,53.86,137.36,96.34,82A225.76,225.76,0,0,1,112.66,63l-3.54,1.46h3L108.58,63c17.69,22.36,31.6,47.41,48.77,70.15,3.35,4.43,6.65,9.24,10.89,12.86,4.9,4.19,10.23,5.27,16.51,5,15.81-.72,31.6-1.66,47.42-2.17q46.44-1.5,92.93-.57,23.73.48,47.44,1.6c6.07.28,12.57,1.19,18.46-.81,6.58-2.23,11.36-7.93,16.13-12.68l74-73.66c4.56-4.54-2.51-11.62-7.08-7.07Z"/><path class="cls-2" d="M241.92,233.07c-4,.31-6.78.36-8.56,4.32a32.13,32.13,0,0,0-2.71,10.36c-.55,6.05,1.8,14.79,9.81,12.7,5.63-1.48,10.11-8.66,11.17-14,1.25-6.43-3.1-13.36-10-13.21a5.14,5.14,0,0,0-4.82,3.67,24.45,24.45,0,0,0-.62,12.36,5,5,0,0,0,6.15,3.49c9.15-3.29,9.3-16.94-.19-20-6.14-2-8.78,7.69-2.66,9.64-.84-.27,0-.74-.15.28s-.29.63.34.4l6.15,3.49a13.94,13.94,0,0,1,.62-7l-4.82,3.67c2,0-3.19,6.8-3.25,7.2q-1.61,1.23,2.25,1.42l0-1.16c.2-1,0-2.24.15-3.3a21.44,21.44,0,0,1,2-6.49l-4.31,2.48,3.5-.27c6.37-.5,6.43-10.51,0-10Z"/><path class="cls-2" d="M280.35,234.92c-5.3,7.23-2.61,17.66,4.69,22.33a5.08,5.08,0,0,0,6.06-.78c3.44-3.33,7.06-7.4,7.22-12.47a11.44,11.44,0,0,0-5.82-10.28,8.93,8.93,0,0,0-11.85,3.34c-2,3.41-2.22,8.05-1.2,11.81s4.06,7.86,8.48,7.83c4.61,0,7.51-3.72,8.36-7.91,1.57-7.73-.71-17.23-9.65-18.31-2.7-.33-5,2.53-5,5,0,3,2.33,4.67,5,5-1.2-.15-.58-.31-.27.86a12.08,12.08,0,0,1,.35,3.23c0,.38-.32,2.76-.3,2.79.25.24,3.08-.27,3.05-.2s-.58-1.84-.49-1.38a21.2,21.2,0,0,1-.05-2.52c0-.38.92-1.86-.36-.92-2.64,2-.18-.58-.55.46,0,.14.41.6.3.93a8,8,0,0,1-.75,1.73A20.35,20.35,0,0,1,284,249.4l6.06-.79c-3.09-2-3.09-5.93-1.1-8.65,3.8-5.19-4.87-10.19-8.64-5Z"/><path class="cls-2" d="M377.73,266.55a127.65,127.65,0,0,1,31.13-11.18c6.28-1.39,3.62-11-2.66-9.65a138.1,138.1,0,0,0-33.52,12.2c-5.72,2.95-.66,11.58,5.05,8.63Z"/><path class="cls-2" d="M379.19,286.14l35.62,2.14c6.42.39,6.4-9.61,0-10l-35.62-2.14c-6.43-.39-6.41,9.61,0,10Z"/><path class="cls-2" d="M149.4,264q-14.75-6-29.91-10.73c-6.15-1.94-8.79,7.71-2.66,9.64q15.17,4.77,29.91,10.73c6,2.42,8.56-7.25,2.66-9.64Z"/><path class="cls-2" d="M152.09,283.15a296.84,296.84,0,0,0-34.56,3.51c-6.33,1-3.64,10.65,2.66,9.64a273,273,0,0,1,31.9-3.15c6.42-.27,6.45-10.27,0-10Z"/><path class="cls-3" d="M385,138.08c1.19,4.76-3.86,8.63-8.33,10.86-22,10.95-46.51,16.49-71.13,18.37s-49.39.16-73.91-2.78c-18-2.17-37.17-5.54-50.47-17.63-2.89-2.63-5.6-6.11-5.12-9.92l-.32.12c11.84-37,25-73.26,37.06-110.22,4.33-13.24,19.94-19.21,33.95-21.79A184.41,184.41,0,0,1,317.81,6c15.1,3.18,31.8,10.22,36.05,24.71q8.92,30.49,17.86,61c4.31,14.71,8.62,29.42,12.36,44.28.3,1.16.94,2.05-.25,2.31"/><path class="cls-4" d="M351.62,26c0,13.25-32.22,22-69.5,22s-67.5-10.75-67.5-24,30.22-24,67.5-24S351.62,12.75,351.62,26Z"/><rect class="cls-1" x="214.95" y="57.17" width="13" height="47.55" rx="6.5" transform="translate(27.91 -53.71) rotate(14.75)"/><circle class="cls-1" cx="211.62" cy="115" r="6"/><path class="cls-5" d="M312.37,478.06c10.5-7,24.17-8.31,36.31-4.93s22.77,11.15,30.92,20.76c15.59,18.39,22.19,42.63,27,66.27a634.46,634.46,0,0,1,12.64,116.93l-124.54,5.77c-3.32.16-8.15-1.93-6.49-4.8l-.45-.41q-.88-40.51,0-81c.94-41.57,3.66-84.47,22.22-121.68"/><path class="cls-5" d="M314.89,482.38c13.11-8.3,29.49-7.5,42.87-.19,13.73,7.5,23.53,20.21,30.26,34.08s10.48,29.27,13.59,44.41q5.56,27.17,8.7,54.77,3.45,30.7,3.92,61.64l5-5-65.24,3-31.63,1.47-16.8.78-7.91.36a25,25,0,0,0-3.47.12,2.43,2.43,0,0,1-1.1-.17q-1.62-.72-.06,1.72a4.9,4.9,0,0,0-1.28-4.86l-.45-.42,1.46,3.54c-.76-35.21-.95-70.57.9-105.74,1.69-32.33,6.23-65.12,20.67-94.47,2.83-5.75-5.79-10.82-8.64-5-15.38,31.27-20.32,65.92-22.08,100.39-.94,18.46-1.17,37-1.26,55.44q-.09,14.82.08,29.65.09,6.93.21,13.84c.07,3.36-.67,7.37,2,9.88l-1.29-4.86c-1.37,3.9.69,7.53,4.17,9.45,4.56,2.51,10.1,1.53,15,1.31l38.55-1.79,78.09-3.62a5.09,5.09,0,0,0,5-5,644,644,0,0,0-13.15-119.88c-6.58-31.85-18.17-67.73-49-84-16.3-8.63-36.37-9.51-52.27.56-5.42,3.43-.41,12.09,5.05,8.63Z"/><path class="cls-5" d="M227.12,474.5c-10.5-7-30.86-8.38-43-5s-21.85,14.39-30,24c-15.59,18.39-18.5,42.77-23.31,66.4a634.54,634.54,0,0,0-12.63,116.93l124.54,5.78c3.31.15,8.15-1.93,6.48-4.8l.45-.41q.9-40.53,0-81c-.94-41.58-3.66-84.48-22.22-121.68"/><path class="cls-5" d="M229.64,470.18c-12.41-7.82-29.85-9-43.95-6.18-16.45,3.31-29.46,17.81-38.91,30.82-10.43,14.37-14.59,32.09-17.95,49.21-3.9,19.83-7.71,39.63-10.33,59.66a643.68,643.68,0,0,0-5.32,73.14,5.08,5.08,0,0,0,5,5l78.08,3.62,38.55,1.79c4.94.23,10.49,1.2,15.05-1.31,3.48-1.91,5.54-5.54,4.17-9.45l-1.29,4.87c2.71-2.51,2-6.52,2-9.88q.14-6.93.21-13.84.17-14.83.09-29.66c-.1-18.47-.33-37-1.27-55.43-1.75-34.47-6.7-69.13-22.08-100.4-2.84-5.77-11.47-.71-8.63,5.05,14.43,29.34,19,62.14,20.67,94.46,1.84,35.18,1.65,70.54.89,105.75l1.47-3.54-.45.41a4.92,4.92,0,0,0-1.29,4.87c-.7-2,1.57-1.17-.64-1.57a23.08,23.08,0,0,0-3-.05c-2.64-.1-5.27-.25-7.91-.37l-16.8-.78-32.62-1.51-65.23-3,5,5A644,644,0,0,1,135.8,560.42c3.18-15.9,5.42-32.49,12.09-47.42a79.32,79.32,0,0,1,13.28-20.06c5.39-6.15,11.2-12.34,18.47-16.25,12.6-6.77,33-5.42,45,2.13,5.46,3.44,10.48-5.21,5-8.64Z"/><path class="cls-1" d="M375.87,547.19c-11.42-14.07-32.17-17.63-47.73-8.49-16.4,9.64-22.36,30.37-18.47,48.24a42.76,42.76,0,0,0,36.41,33.13c17.3,2,33.07-8.72,39.18-24.65,1.94-5-2.14-11-7-12.3-5.64-1.55-10.36,1.92-12.3,7-2.76,7.19-11.36,11.17-18.69,10.08-9.54-1.43-16.42-9.45-18.33-18.55-1.86-8.87.69-20.11,8.63-25.26,8.47-5.48,18.12-2.44,24.13,5,3.41,4.19,10.61,3.54,14.15,0,4.15-4.15,3.41-9.94,0-14.15Z"/><path class="cls-2" d="M260.92,268.52C231.78,269.75,217,317,241.67,333.78c11.1,7.55,29.51,6.76,41.15.73,13.77-7.13,16.47-24.89,11.51-38.29-5.56-15-19.76-33.49-38-27.63-6.1,2-3.49,11.62,2.66,9.65,14-4.51,25.13,14.83,27.34,26.17,1.27,6.54.08,14.07-4.89,18.88-4.55,4.39-12.18,5.34-18.24,5.63s-13-.52-17.74-4.82c-4.46-4-6-10-6-15.83,0-12.4,7.31-29.15,21.51-29.75,6.41-.27,6.45-10.27,0-10Z"/><path class="cls-2" d="M235,208.17a22.37,22.37,0,0,1,13.27-5.56c6.38-.44,6.43-10.45,0-10a33.72,33.72,0,0,0-20.35,8.48c-4.84,4.26,2.26,11.31,7.08,7.08Z"/><path class="cls-2" d="M288.29,201.38a9.13,9.13,0,0,1,8.37,2.55c4.6,4.51,11.68-2.55,7.07-7.07a19.55,19.55,0,0,0-18.1-5.12c-6.29,1.35-3.62,11,2.66,9.64Z"/><path class="cls-1" d="M471.91,412.57a212.66,212.66,0,0,0-14.22,41.37c-1.44,6.26,8.2,8.93,9.64,2.65a200.93,200.93,0,0,1,13.21-39c2.67-5.8-5.94-10.89-8.63-5Z"/><path class="cls-1" d="M457.12,482.94c6.44,0,6.45-10,0-10s-6.44,10,0,10Z"/><path class="cls-1" d="M499.15,437.47l-14,21.52c-3.52,5.41,5.13,10.43,8.63,5.05l14-21.52c3.52-5.41-5.13-10.43-8.63-5Z"/><path class="cls-1" d="M478.48,484.12c6.44,0,6.45-10,0-10s-6.44,10,0,10Z"/></g></g></svg>